# UnrealEd OBJ exporter

v 18.213587 20.384130 -93.995049
v 17.122072 20.413528 -96.840881
v 17.076532 20.395149 -91.500168
v 17.207453 -0.550998 -96.838997
v 18.001575 -0.498283 -93.338219
v 17.084246 -0.516486 -91.503372
v 15.871777 -0.499050 -79.251122
v 16.569050 -0.706193 -82.183853
v 16.782383 -0.495711 -79.747704
v 15.874708 23.148670 -83.280350
v 16.565708 23.348511 -80.321228
v 16.781963 23.145987 -82.783257
v 17.151968 20.394630 -72.564911
v 17.988569 20.575764 -76.220993
v 17.114271 20.709902 -77.934441
v 17.185543 -0.167655 -79.303261
v 18.002604 -0.379727 -75.774323
v 17.084236 -0.516124 -73.938522
v 18.213612 20.384090 -69.742393
v 17.122156 20.413528 -72.587868
v 17.076563 20.395155 -67.247169
v 17.207241 -0.550821 -72.586258
v 18.001696 -0.498287 -69.086159
v 17.084311 -0.516534 -67.250404
v 14.762291 -0.497280 -41.712170
v 14.484184 -0.650775 -39.093082
v 14.061739 -0.499064 -42.497444
v 14.739808 16.908485 -39.482666
v 14.428564 17.018156 -42.118492
v 14.055595 16.910410 -38.700378
v 18.213520 20.384073 -35.721550
v 17.122248 20.413610 -38.569244
v 17.076536 20.395155 -33.228580
v 17.207106 -0.550677 -38.567860
v 18.001768 -0.498281 -35.068226
v 17.084272 -0.516495 -33.231812
v 18.213490 20.384106 -10.208862
v 17.122164 20.413557 -13.056904
v 17.076525 20.395123 -7.716223
v 17.207481 -0.550988 -13.055206
v 18.001356 -0.498296 -9.552806
v 17.084211 -0.516463 -7.719412
v 15.874721 23.148664 -17.511011
v 16.495104 23.259537 -14.247591
v 16.865917 23.143620 -17.038715
v 18.213663 20.384047 -24.136105
v 17.122101 20.413462 -26.981583
v 17.076565 20.395159 -21.640827
v 17.206633 -0.550382 -26.980312
v 18.002121 -0.498292 -23.482969
v 17.084347 -0.516557 -21.644100
v 16.552681 -0.379684 -85.626556
v 17.414196 -0.830262 -87.322273
v 17.162596 -0.379684 -85.626556
v 17.162598 -0.483608 -89.041786
v 17.414196 -0.830262 -87.322273
v 16.554111 -0.483608 -89.041786
v 16.554106 21.724440 -89.717560
v 17.591999 22.174229 -88.022057
v 17.162592 21.724440 -89.717560
v 17.162592 21.828362 -86.302330
v 17.591999 22.174229 -88.022057
v 16.552675 21.828362 -86.302330
v 16.552687 -0.499054 -58.249744
v 17.414246 -0.897797 -59.958141
v 17.162601 -0.499054 -58.249744
v 17.162601 -0.499057 -61.666553
v 17.414246 -0.897797 -59.958141
v 16.554117 -0.499057 -61.666553
v 16.554111 21.719267 -61.666546
v 17.591990 22.117313 -59.958218
v 17.162598 21.719267 -61.666546
v 17.162598 21.719269 -58.249737
v 17.591990 22.117313 -59.958218
v 16.552681 21.719269 -58.249737
v 19.043533 22.636160 -54.366447
v 19.863579 22.868862 -53.060829
v 19.559256 22.636160 -54.366447
v 20.044907 22.639605 -50.185429
v 19.863579 22.868862 -53.060829
v 19.042994 22.636160 -49.336399
v 16.161757 -0.499050 -58.188343
v 16.144684 -0.774349 -56.279427
v 15.645566 -0.499050 -58.188343
v 15.574775 -0.499050 -54.360355
v 16.144684 -0.774349 -56.279427
v 16.161758 -0.499050 -54.360363
v 15.871790 -0.499057 -13.481776
v 16.695635 -0.749804 -14.612098
v 16.327326 -0.499057 -13.481776
v 16.695635 -0.749804 -14.612098
v 15.874725 -0.499057 -17.511026
v 16.758532 -0.501841 -16.849401
v 16.552692 -0.499057 -29.763474
v 17.498314 -0.831026 -31.709965
v 17.162605 -0.499057 -29.763474
v 17.162607 -0.365920 -33.177681
v 17.498314 -0.831026 -31.709965
v 16.554121 -0.365920 -33.177681
v 16.554117 21.835531 -32.311943
v 17.527174 22.167538 -30.379887
v 17.162603 21.835531 -32.311943
v 17.162603 21.702394 -28.897722
v 17.527174 22.167538 -30.379887
v 16.552687 21.702394 -28.897722
v 15.345236 24.411654 -106.882896
v 16.337193 24.596996 -105.441307
v 15.959335 24.411654 -106.882896
v 15.959333 23.865883 -102.089439
v 16.337193 24.596996 -105.441307
v 15.354315 23.865883 -102.089439
v 15.959333 23.865883 -102.089439
v 16.414936 24.002325 -103.287811
v 16.337193 24.596996 -105.441307
v 15.959341 0.046723 -109.657021
v 16.174784 -0.304060 -108.652107
v 15.345240 0.046723 -109.657021
v 15.354321 -0.499044 -104.863579
v 16.174784 -0.304060 -108.652107
v 15.959337 -0.499044 -104.863579
v 16.526560 -0.353699 -106.143860
v 15.959337 -0.499044 -104.863579
v 16.174784 -0.304060 -108.652107
v 19.559248 22.636164 -97.044632
v 19.866697 22.839941 -98.529732
v 19.042984 22.636164 -97.044632
v 19.043526 22.636164 -102.074669
v 19.866697 22.839941 -98.529732
v 19.559246 22.636164 -102.074669
v 20.064749 22.636166 -100.817162
v 19.559246 22.636164 -102.074669
v 19.866697 22.839941 -98.529732
v 19.559252 -0.499047 -102.074669
v 19.848145 -0.705768 -100.857925
v 19.043533 -0.499047 -102.074669
v 19.042988 -0.499050 -97.044640
v 19.848145 -0.705768 -100.857925
v 19.559252 -0.499050 -97.044640
v 20.064756 -0.499047 -98.302139
v 19.559252 -0.499050 -97.044640
v 19.848145 -0.705768 -100.857925
v 19.042997 -0.499057 -49.336407
v 19.858343 -0.690720 -50.813396
v 19.559259 -0.499057 -49.336407
v 19.559259 -0.499050 -54.366447
v 19.858343 -0.690720 -50.813396
v 19.043541 -0.499050 -54.366447
v 19.559259 -0.499050 -54.366447
v 20.064764 -0.499054 -53.108940
v 19.858343 -0.690720 -50.813396
v 15.354330 -0.499050 -44.266930
v 16.200850 -0.773651 -45.519791
v 15.959350 -0.499050 -44.266930
v 15.959351 -0.524618 -49.091286
v 16.200850 -0.773651 -45.519791
v 15.345251 -0.524618 -49.091286
v 15.959351 -0.524618 -49.091286
v 16.495386 -0.517812 -47.811394
v 16.200850 -0.773651 -45.519791
v 15.345246 23.997387 -49.221214
v 16.142403 24.212620 -48.175388
v 15.959346 23.997387 -49.221214
v 15.959344 24.022947 -44.396854
v 16.142403 24.212620 -48.175388
v 15.354325 24.022947 -44.396854
v 15.959344 24.022947 -44.396854
v 16.509260 24.016424 -45.644516
v 16.142403 24.212620 -48.175388
v -1.091272 22.636164 -97.044632
v -1.069514 -0.499047 -102.074669
v -1.091269 -0.499054 -97.044640
v -1.069514 -0.499047 -102.074669
v -1.091272 22.636164 -97.044632
v -1.069517 22.636164 -102.074669
v 17.207453 -0.550998 -96.838997
v 1.418517 20.385633 -96.857925
v 17.122072 20.413528 -96.840881
v 1.418517 20.385633 -96.857925
v 17.207453 -0.550998 -96.838997
v 1.418520 -0.499054 -96.857918
v 1.418517 20.385633 -96.857925
v 1.578796 -0.499054 -91.498161
v 1.578790 20.385633 -91.498169
v 1.578796 -0.499054 -91.498161
v 1.418517 20.385633 -96.857925
v 1.418520 -0.499054 -96.857918
v 1.418520 -0.499054 -96.857918
v 17.084246 -0.516486 -91.503372
v 1.578796 -0.499054 -91.498161
v 17.084246 -0.516486 -91.503372
v 1.418520 -0.499054 -96.857918
v 17.207453 -0.550998 -96.838997
v 17.076532 20.395149 -91.500168
v 1.578796 -0.499054 -91.498161
v 17.084246 -0.516486 -91.503372
v 1.578796 -0.499054 -91.498161
v 17.076532 20.395149 -91.500168
v 1.578790 20.385633 -91.498169
v 17.122072 20.413528 -96.840881
v 1.418517 20.385633 -96.857925
v 17.076532 20.395149 -91.500168
v 1.418517 20.385633 -96.857925
v 1.578790 20.385633 -91.498169
v 17.076532 20.395149 -91.500168
v 18.496660 27.715303 -89.772247
v -2.826368 27.715302 -89.772247
v 18.496660 -0.499050 -89.772255
v 18.496660 -0.499050 -89.772255
v -2.826368 27.715302 -89.772247
v -2.826368 -0.499050 -89.772255
v 18.511129 -0.499050 -91.377441
v -2.711117 27.715302 -91.377434
v 18.511129 27.715305 -91.377434
v -2.711117 27.715302 -91.377434
v 18.511129 -0.499050 -91.377441
v -2.711117 -0.499050 -91.377434
v 18.511129 27.715305 -91.377434
v 18.496660 -0.499050 -89.772255
v 18.511129 -0.499050 -91.377441
v 18.496660 -0.499050 -89.772255
v 18.511129 27.715305 -91.377434
v 18.496660 27.715303 -89.772247
v 18.496660 -0.499050 -89.772255
v -2.711117 -0.499050 -91.377434
v 18.511129 -0.499050 -91.377441
v -2.711117 -0.499050 -91.377434
v 18.496660 -0.499050 -89.772255
v -2.826368 -0.499050 -89.772255
v -2.711117 27.715302 -91.377434
v -2.826368 -0.499050 -89.772255
v -2.826368 27.715302 -89.772247
v -2.826368 -0.499050 -89.772255
v -2.711117 27.715302 -91.377434
v -2.711117 -0.499050 -91.377434
v 18.496660 27.715303 -89.772247
v -2.711117 27.715302 -91.377434
v -2.826368 27.715302 -89.772247
v -2.711117 27.715302 -91.377434
v 18.496660 27.715303 -89.772247
v 18.511129 27.715305 -91.377434
v -0.263560 21.828360 -86.302330
v -0.222729 -0.483611 -89.041786
v -0.263559 -0.379687 -85.626556
v -0.222729 -0.483611 -89.041786
v -0.263560 21.828360 -86.302330
v -0.222732 21.724436 -89.717560
v 16.012211 -0.525470 -83.682671
v -0.217565 -0.499057 -83.693794
v 16.061195 -0.670678 -85.628693
v 16.061195 -0.670678 -85.628693
v -0.217565 -0.499057 -83.693794
v -0.217562 -0.499061 -85.621002
v -0.217569 21.478123 -83.693787
v -0.217562 -0.499061 -85.621002
v -0.217565 -0.499057 -83.693794
v -0.217562 -0.499061 -85.621002
v -0.217569 21.478123 -83.693787
v -0.217565 21.478127 -85.620995
v 16.224312 21.478130 -85.620995
v 15.907130 21.478127 -83.693787
v 16.224316 21.478127 -83.693787
v 15.907130 21.478127 -83.693787
v 16.224312 21.478130 -85.620995
v 15.895474 21.478130 -85.620995
v -0.217569 21.478123 -83.693787
v 15.907130 21.478127 -83.693787
v 15.895474 21.478130 -85.620995
v 15.895474 21.478130 -85.620995
v -0.217565 21.478127 -85.620995
v -0.217569 21.478123 -83.693787
v 1.240568 -0.499054 -83.280342
v 1.142779 23.148664 -79.251114
v 1.240564 23.148668 -83.280342
v 1.142779 23.148664 -79.251114
v 1.240568 -0.499054 -83.280342
v 1.142782 -0.499054 -79.251122
v 17.185543 -0.167655 -79.303261
v 1.418517 20.686607 -77.940323
v 17.114271 20.709902 -77.934441
v 1.418517 20.686607 -77.940323
v 17.185543 -0.167655 -79.303261
v 1.418520 -0.155007 -79.280914
v 1.418520 -0.155007 -79.280914
v 1.578788 20.342566 -72.591629
v 1.418517 20.686607 -77.940323
v 1.578788 20.342566 -72.591629
v 1.418520 -0.155007 -79.280914
v 1.578794 -0.499050 -73.932213
v 1.418520 -0.155007 -79.280914
v 17.084236 -0.516124 -73.938522
v 1.578794 -0.499050 -73.932213
v 17.084236 -0.516124 -73.938522
v 1.418520 -0.155007 -79.280914
v 17.185543 -0.167655 -79.303261
v 17.151968 20.394630 -72.564911
v 1.578794 -0.499050 -73.932213
v 17.084236 -0.516124 -73.938522
v 1.578794 -0.499050 -73.932213
v 17.151968 20.394630 -72.564911
v 1.578788 20.342566 -72.591629
v 17.114271 20.709902 -77.934441
v 1.418517 20.686607 -77.940323
v 17.151968 20.394630 -72.564911
v 1.418517 20.686607 -77.940323
v 1.578788 20.342566 -72.591629
v 17.151968 20.394630 -72.564911
v 17.207241 -0.550821 -72.586258
v 1.418524 20.385626 -72.604912
v 17.122156 20.413528 -72.587868
v 1.418524 20.385626 -72.604912
v 17.207241 -0.550821 -72.586258
v 1.418527 -0.499061 -72.604904
v 1.578796 20.385626 -67.245163
v 1.418527 -0.499061 -72.604904
v 1.578802 -0.499061 -67.245163
v 1.418527 -0.499061 -72.604904
v 1.578796 20.385626 -67.245163
v 1.418524 20.385626 -72.604912
v 1.418527 -0.499061 -72.604904
v 17.084311 -0.516534 -67.250404
v 1.578802 -0.499061 -67.245163
v 17.084311 -0.516534 -67.250404
v 1.418527 -0.499061 -72.604904
v 17.207241 -0.550821 -72.586258
v 17.076563 20.395155 -67.247169
v 1.578802 -0.499061 -67.245163
v 17.084311 -0.516534 -67.250404
v 1.578802 -0.499061 -67.245163
v 17.076563 20.395155 -67.247169
v 1.578796 20.385626 -67.245163
v 17.122156 20.413528 -72.587868
v 1.418524 20.385626 -72.604912
v 17.076563 20.395155 -67.247169
v 1.418524 20.385626 -72.604912
v 1.578796 20.385626 -67.245163
v 17.076563 20.395155 -67.247169
v -0.000010 28.024014 -61.761112
v -0.301106 -0.499047 -67.203003
v -0.000009 -0.499050 -61.761120
v -0.301106 -0.499047 -67.203003
v -0.000010 28.024014 -61.761112
v -0.301108 28.024017 -67.203003
v -0.222727 21.719263 -61.666546
v -0.263552 -0.499057 -58.249744
v -0.263555 21.719267 -58.249737
v -0.263552 -0.499057 -58.249744
v -0.222727 21.719263 -61.666546
v -0.222722 -0.499061 -61.666553
v -1.091263 22.636160 -49.336399
v -1.069504 -0.499054 -54.366447
v -1.091258 -0.499061 -49.336407
v -1.069504 -0.499054 -54.366447
v -1.091263 22.636160 -49.336399
v -1.069509 22.636160 -54.366447
v 1.554620 23.303999 -58.188332
v 1.413039 -0.499054 -54.360355
v 1.413037 23.304001 -54.360363
v 1.413039 -0.499054 -54.360355
v 1.554620 23.303999 -58.188332
v 1.554622 -0.499050 -58.188343
v 1.554620 23.303999 -58.188332
v 15.690334 23.310192 -54.361614
v 15.645564 23.304003 -58.188332
v 15.690334 23.310192 -54.361614
v 1.554620 23.303999 -58.188332
v 1.413037 23.304001 -54.360363
v 3.306451 -0.486973 -42.456337
v 3.120325 16.906866 -38.720234
v 3.272194 16.909508 -42.490356
v 3.120325 16.906866 -38.720234
v 3.306451 -0.486973 -42.456337
v 3.090833 -0.499061 -38.700371
v 17.207106 -0.550677 -38.567860
v 1.418524 20.385635 -38.586338
v 17.122248 20.413610 -38.569244
v 1.418524 20.385635 -38.586338
v 17.207106 -0.550677 -38.567860
v 1.418527 -0.499047 -38.586338
v 1.418524 20.385635 -38.586338
v 1.578802 -0.499047 -33.226597
v 1.578796 20.385635 -33.226582
v 1.578802 -0.499047 -33.226597
v 1.418524 20.385635 -38.586338
v 1.418527 -0.499047 -38.586338
v 1.418527 -0.499047 -38.586338
v 17.084272 -0.516495 -33.231812
v 1.578802 -0.499047 -33.226597
v 17.084272 -0.516495 -33.231812
v 1.418527 -0.499047 -38.586338
v 17.207106 -0.550677 -38.567860
v 17.076536 20.395155 -33.228580
v 1.578802 -0.499047 -33.226597
v 17.084272 -0.516495 -33.231812
v 1.578802 -0.499047 -33.226597
v 17.076536 20.395155 -33.228580
v 1.578796 20.385635 -33.226582
v 17.122248 20.413610 -38.569244
v 1.418524 20.385635 -38.586338
v 17.076536 20.395155 -33.228580
v 1.418524 20.385635 -38.586338
v 1.578796 20.385635 -33.226582
v 17.076536 20.395155 -33.228580
v 18.496672 27.715296 -27.203218
v -2.826355 27.715296 -27.203218
v 18.496672 -0.499057 -27.203218
v 18.496672 -0.499057 -27.203218
v -2.826355 27.715296 -27.203218
v -2.826355 -0.499061 -27.203218
v 18.511143 -0.499057 -28.808418
v -2.711103 27.715292 -28.808403
v 18.511143 27.715296 -28.808403
v -2.711103 27.715292 -28.808403
v 18.511143 -0.499057 -28.808418
v -2.711103 -0.499057 -28.808418
v 18.496672 27.715296 -27.203218
v 18.511143 -0.499057 -28.808418
v 18.511143 27.715296 -28.808403
v 18.511143 -0.499057 -28.808418
v 18.496672 27.715296 -27.203218
v 18.496672 -0.499057 -27.203218
v 18.496672 -0.499057 -27.203218
v -2.711103 -0.499057 -28.808418
v 18.511143 -0.499057 -28.808418
v -2.711103 -0.499057 -28.808418
v 18.496672 -0.499057 -27.203218
v -2.826355 -0.499061 -27.203218
v -2.711103 27.715292 -28.808403
v -2.826355 -0.499061 -27.203218
v -2.826355 27.715296 -27.203218
v -2.826355 -0.499061 -27.203218
v -2.711103 27.715292 -28.808403
v -2.711103 -0.499057 -28.808418
v 18.496672 27.715296 -27.203218
v -2.711103 27.715292 -28.808403
v -2.826355 27.715296 -27.203218
v -2.711103 27.715292 -28.808403
v 18.496672 27.715296 -27.203218
v 18.511143 27.715296 -28.808403
v 18.496672 27.715298 -42.570023
v -2.826358 27.715298 -42.570023
v 18.496670 -0.499057 -42.570030
v 18.496670 -0.499057 -42.570030
v -2.826358 27.715298 -42.570023
v -2.826358 -0.499054 -42.570030
v 18.511139 -0.499057 -44.175205
v -2.711106 27.715296 -44.175205
v 18.511139 27.715298 -44.175213
v -2.711106 27.715296 -44.175205
v 18.511139 -0.499057 -44.175205
v -2.711106 -0.499054 -44.175205
v 18.496672 27.715298 -42.570023
v 18.511139 -0.499057 -44.175205
v 18.511139 27.715298 -44.175213
v 18.511139 -0.499057 -44.175205
v 18.496672 27.715298 -42.570023
v 18.496670 -0.499057 -42.570030
v 18.496670 -0.499057 -42.570030
v -2.711106 -0.499054 -44.175205
v 18.511139 -0.499057 -44.175205
v -2.711106 -0.499054 -44.175205
v 18.496670 -0.499057 -42.570030
v -2.826358 -0.499054 -42.570030
v -2.711106 27.715296 -44.175205
v -2.826358 -0.499054 -42.570030
v -2.826358 27.715298 -42.570023
v -2.826358 -0.499054 -42.570030
v -2.711106 27.715296 -44.175205
v -2.711106 -0.499054 -44.175205
v 18.496672 27.715298 -42.570023
v -2.711106 27.715296 -44.175205
v -2.826358 27.715298 -42.570023
v -2.711106 27.715296 -44.175205
v 18.496672 27.715298 -42.570023
v 18.511139 27.715298 -44.175213
v 15.735347 -0.511013 -17.542418
v 1.554629 -0.525572 -21.365564
v 15.645573 -0.525572 -21.365564
v 1.554629 -0.525572 -21.365564
v 15.735347 -0.511013 -17.542418
v 1.413046 -0.499054 -17.537682
v 1.413046 23.303429 -17.702585
v 15.574781 23.303429 -17.702585
v 15.780158 23.283991 -21.529053
v 15.780158 23.283991 -21.529053
v 1.554627 23.276907 -21.530470
v 1.413046 23.303429 -17.702585
v 1.554627 23.276907 -21.530470
v 1.413046 -0.499054 -17.537682
v 1.413046 23.303429 -17.702585
v 1.413046 -0.499054 -17.537682
v 1.554627 23.276907 -21.530470
v 1.554629 -0.525572 -21.365564
v 17.207481 -0.550988 -13.055206
v 1.418534 20.385618 -13.073977
v 17.122164 20.413557 -13.056904
v 1.418534 20.385618 -13.073977
v 17.207481 -0.550988 -13.055206
v 1.418537 -0.499064 -13.073977
v 1.418534 20.385618 -13.073977
v 1.578813 -0.499064 -7.714229
v 1.578807 20.385620 -7.714229
v 1.578813 -0.499064 -7.714229
v 1.418534 20.385618 -13.073977
v 1.418537 -0.499064 -13.073977
v 1.418537 -0.499064 -13.073977
v 17.084211 -0.516463 -7.719412
v 1.578813 -0.499064 -7.714229
v 17.084211 -0.516463 -7.719412
v 1.418537 -0.499064 -13.073977
v 17.207481 -0.550988 -13.055206
v 17.076525 20.395123 -7.716223
v 1.578813 -0.499064 -7.714229
v 17.084211 -0.516463 -7.719412
v 1.578813 -0.499064 -7.714229
v 17.076525 20.395123 -7.716223
v 1.578807 20.385620 -7.714229
v 17.122164 20.413557 -13.056904
v 1.418534 20.385618 -13.073977
v 17.076525 20.395123 -7.716223
v 1.418534 20.385618 -13.073977
v 1.578807 20.385620 -7.714229
v 17.076525 20.395123 -7.716223
v 1.240581 -0.499061 -17.511026
v 1.142791 23.148659 -13.481790
v 1.240578 23.148663 -17.511011
v 1.142791 23.148659 -13.481790
v 1.240581 -0.499061 -17.511026
v 1.142796 -0.499061 -13.481776
v 0.000000 28.382076 -2.832399
v -0.301096 -0.540393 -5.414996
v 0.000002 -0.000003 -0.000000
v -0.301096 -0.540393 -5.414996
v 0.000000 28.382076 -2.832399
v -0.301097 27.841690 -8.247396
v 17.206633 -0.550382 -26.980312
v 1.418531 20.385626 -26.998585
v 17.122101 20.413462 -26.981583
v 1.418531 20.385626 -26.998585
v 17.206633 -0.550382 -26.980312
v 1.418534 -0.499061 -26.998571
v 1.418531 20.385626 -26.998585
v 1.578808 -0.499057 -21.638849
v 1.578803 20.385624 -21.638823
v 1.578808 -0.499057 -21.638849
v 1.418531 20.385626 -26.998585
v 1.418534 -0.499061 -26.998571
v 1.418534 -0.499061 -26.998571
v 17.084347 -0.516557 -21.644100
v 1.578808 -0.499057 -21.638849
v 17.084347 -0.516557 -21.644100
v 1.418534 -0.499061 -26.998571
v 17.206633 -0.550382 -26.980312
v 17.076565 20.395159 -21.640827
v 1.578808 -0.499057 -21.638849
v 17.084347 -0.516557 -21.644100
v 1.578808 -0.499057 -21.638849
v 17.076565 20.395159 -21.640827
v 1.578803 20.385624 -21.638823
v 17.122101 20.413462 -26.981583
v 1.418531 20.385626 -26.998585
v 17.076565 20.395159 -21.640827
v 1.418531 20.385626 -26.998585
v 1.578803 20.385624 -21.638823
v 17.076565 20.395159 -21.640827
v -0.222722 21.835527 -32.311943
v -0.263547 -0.499061 -29.763474
v -0.263548 21.702393 -28.897722
v -0.263547 -0.499061 -29.763474
v -0.222722 21.835527 -32.311943
v -0.222717 -0.365927 -33.177681
v 2.526652 -0.496020 -104.888176
v 2.514470 23.865877 -102.089439
v 2.900093 24.130463 -104.484268
v 2.900093 24.130463 -104.484268
v 2.420663 0.080452 -109.544548
v 2.526652 -0.496020 -104.888176
v 2.312673 24.411646 -106.882896
v 2.420663 0.080452 -109.544548
v 2.900093 24.130463 -104.484268
v -1.091272 22.636164 -97.044632
v 19.042984 22.636164 -97.044632
v 19.866697 22.839941 -98.529732
v -1.069517 22.636164 -102.074669
v -1.091272 22.636164 -97.044632
v 19.866697 22.839941 -98.529732
v 19.043526 22.636164 -102.074669
v -1.069517 22.636164 -102.074669
v 19.866697 22.839941 -98.529732
v -1.069514 -0.499047 -102.074669
v 19.043533 -0.499047 -102.074669
v 19.848145 -0.705768 -100.857925
v -1.069514 -0.499047 -102.074669
v 19.848145 -0.705768 -100.857925
v -1.091269 -0.499054 -97.044640
v 19.042988 -0.499050 -97.044640
v -1.091269 -0.499054 -97.044640
v 19.848145 -0.705768 -100.857925
v 16.552675 21.828362 -86.302330
v 17.591999 22.174229 -88.022057
v -0.263560 21.828360 -86.302330
v -0.263560 21.828360 -86.302330
v 17.591999 22.174229 -88.022057
v 16.554106 21.724440 -89.717560
v 16.554106 21.724440 -89.717560
v -0.222732 21.724436 -89.717560
v -0.263560 21.828360 -86.302330
v 1.240568 -0.499054 -83.280342
v 15.874712 -0.499050 -83.280350
v 16.569050 -0.706193 -82.183853
v 16.569050 -0.706193 -82.183853
v 1.142782 -0.499054 -79.251122
v 1.240568 -0.499054 -83.280342
v 15.871777 -0.499050 -79.251122
v 1.142782 -0.499054 -79.251122
v 16.569050 -0.706193 -82.183853
v 1.142779 23.148664 -79.251114
v 15.871773 23.148670 -79.251114
v 16.565708 23.348511 -80.321228
v 1.240564 23.148668 -83.280342
v 1.142779 23.148664 -79.251114
v 16.565708 23.348511 -80.321228
v 15.874708 23.148670 -83.280350
v 1.240564 23.148668 -83.280342
v 16.565708 23.348511 -80.321228
v 17.151968 20.394630 -72.564911
v 17.084236 -0.516124 -73.938522
v 18.002604 -0.379727 -75.774323
v 18.002604 -0.379727 -75.774323
v 17.988569 20.575764 -76.220993
v 17.151968 20.394630 -72.564911
v 17.988569 20.575764 -76.220993
v 18.002604 -0.379727 -75.774323
v 17.185543 -0.167655 -79.303261
v 17.988569 20.575764 -76.220993
v 17.185543 -0.167655 -79.303261
v 17.114271 20.709902 -77.934441
v -0.301106 -0.499047 -67.203003
v 18.226246 -0.499047 -67.203003
v 19.165239 -0.499045 -64.521835
v -0.000009 -0.499050 -61.761120
v -0.301106 -0.499047 -67.203003
v 19.165239 -0.499045 -64.521835
v 18.238289 -0.499047 -61.761120
v -0.000009 -0.499050 -61.761120
v 19.165239 -0.499045 -64.521835
v -0.000010 28.024014 -61.761112
v 18.238287 28.024014 -61.761112
v 19.165243 28.024019 -64.521774
v -0.000010 28.024014 -61.761112
v 19.165243 28.024019 -64.521774
v -0.301108 28.024017 -67.203003
v 18.226246 28.024014 -67.203011
v -0.301108 28.024017 -67.203003
v 19.165243 28.024019 -64.521774
v 16.552681 21.719269 -58.249737
v 17.591990 22.117313 -59.958218
v -0.263555 21.719267 -58.249737
v -0.263555 21.719267 -58.249737
v 17.591990 22.117313 -59.958218
v 16.554111 21.719267 -61.666546
v 16.554111 21.719267 -61.666546
v -0.222727 21.719263 -61.666546
v -0.263555 21.719267 -58.249737
v -1.091263 22.636160 -49.336399
v 19.042994 22.636160 -49.336399
v 19.863579 22.868862 -53.060829
v -1.069509 22.636160 -54.366447
v -1.091263 22.636160 -49.336399
v 19.863579 22.868862 -53.060829
v 19.043533 22.636160 -54.366447
v -1.069509 22.636160 -54.366447
v 19.863579 22.868862 -53.060829
v -1.069504 -0.499054 -54.366447
v 19.043541 -0.499050 -54.366447
v 19.858343 -0.690720 -50.813396
v -1.069504 -0.499054 -54.366447
v 19.858343 -0.690720 -50.813396
v -1.091258 -0.499061 -49.336407
v 19.042997 -0.499057 -49.336407
v -1.091258 -0.499061 -49.336407
v 19.858343 -0.690720 -50.813396
v 16.161757 23.304001 -54.360371
v 16.494471 23.304003 -56.274353
v 15.690334 23.310192 -54.361614
v 16.494471 23.304003 -56.274353
v 16.161757 23.304003 -58.188335
v 15.690334 23.310192 -54.361614
v 15.645564 23.304003 -58.188332
v 15.690334 23.310192 -54.361614
v 16.161757 23.304003 -58.188335
v 14.055599 -0.499057 -38.700371
v 3.090833 -0.499061 -38.700371
v 3.306451 -0.486973 -42.456337
v 3.306451 -0.486973 -42.456337
v 14.484184 -0.650775 -39.093082
v 14.055599 -0.499057 -38.700371
v 14.484184 -0.650775 -39.093082
v 3.306451 -0.486973 -42.456337
v 14.061739 -0.499064 -42.497444
v 2.324838 24.001116 -49.200062
v 2.312689 -0.524625 -49.091286
v 2.893615 -0.511429 -46.593964
v 2.893615 -0.511429 -46.593964
v 2.568425 24.018406 -44.463558
v 2.324838 24.001116 -49.200062
v 2.568425 24.018406 -44.463558
v 2.893615 -0.511429 -46.593964
v 2.514486 -0.499061 -44.266930
v 16.161764 23.276907 -21.530470
v 16.161764 -0.525576 -21.365564
v 15.645573 -0.525572 -21.365564
v 16.161764 23.276907 -21.530470
v 15.645573 -0.525572 -21.365564
v 15.780158 23.283991 -21.529053
v 15.780158 23.283991 -21.529053
v 15.645573 -0.525572 -21.365564
v 1.554629 -0.525572 -21.365564
v 15.780158 23.283991 -21.529053
v 1.554629 -0.525572 -21.365564
v 1.554627 23.276907 -21.530470
v 16.494478 -0.512317 -19.451624
v 16.161766 -0.499054 -17.537682
v 15.735347 -0.511013 -17.542418
v 16.161764 -0.525576 -21.365564
v 16.494478 -0.512317 -19.451624
v 15.735347 -0.511013 -17.542418
v 16.161764 -0.525576 -21.365564
v 15.735347 -0.511013 -17.542418
v 15.645573 -0.525572 -21.365564
v 16.494478 23.290169 -19.616528
v 16.161764 23.276907 -21.530470
v 15.780158 23.283991 -21.529053
v 16.161764 23.303429 -17.702600
v 16.494478 23.290169 -19.616528
v 15.780158 23.283991 -21.529053
v 16.161764 23.303429 -17.702600
v 15.780158 23.283991 -21.529053
v 15.574781 23.303429 -17.702585
v 1.240581 -0.499061 -17.511026
v 15.874725 -0.499057 -17.511026
v 16.695635 -0.749804 -14.612098
v 16.695635 -0.749804 -14.612098
v 1.142796 -0.499061 -13.481776
v 1.240581 -0.499061 -17.511026
v 15.871790 -0.499057 -13.481776
v 1.142796 -0.499061 -13.481776
v 16.695635 -0.749804 -14.612098
v 1.142791 23.148659 -13.481790
v 15.871786 23.148664 -13.481790
v 16.495104 23.259537 -14.247591
v 1.240578 23.148663 -17.511011
v 1.142791 23.148659 -13.481790
v 16.495104 23.259537 -14.247591
v 15.874721 23.148664 -17.511011
v 1.240578 23.148663 -17.511011
v 16.495104 23.259537 -14.247591
v -0.301096 -0.540393 -5.414996
v 18.226257 -0.540393 -5.414996
v 19.165449 -0.266126 -2.666692
v 0.000002 -0.000003 -0.000000
v -0.301096 -0.540393 -5.414996
v 19.165449 -0.266126 -2.666692
v 18.238300 -0.000003 -0.000000
v 0.000002 -0.000003 -0.000000
v 19.165449 -0.266126 -2.666692
v 0.000000 28.382076 -2.832399
v 18.238300 28.382076 -2.832399
v 19.165253 28.107946 -5.579332
v 0.000000 28.382076 -2.832399
v 19.165253 28.107946 -5.579332
v -0.301097 27.841690 -8.247396
v 18.226255 27.841686 -8.247396
v -0.301097 27.841690 -8.247396
v 19.165253 28.107946 -5.579332
v 18.998230 -0.000003 -0.000000
v 18.998228 28.382076 -2.832399
v 18.238300 28.382076 -2.832399
v 18.998230 -0.000003 -0.000000
v 18.238300 28.382076 -2.832399
v 18.238300 -0.000003 -0.000000
v 18.238300 28.382076 -2.832399
v 0.000000 28.382076 -2.832399
v 18.238300 -0.000003 -0.000000
v 18.238300 -0.000003 -0.000000
v 0.000000 28.382076 -2.832399
v 0.000002 -0.000003 -0.000000
v 16.552687 21.702394 -28.897722
v 17.527174 22.167538 -30.379887
v -0.263548 21.702393 -28.897722
v -0.263548 21.702393 -28.897722
v 17.527174 22.167538 -30.379887
v 16.554117 21.835531 -32.311943
v 16.554117 21.835531 -32.311943
v -0.222722 21.835527 -32.311943
v -0.263548 21.702393 -28.897722
v 16.174784 -0.304060 -108.652107
v 2.420663 0.080452 -109.544548
v 15.345240 0.046723 -109.657021
v 16.174784 -0.304060 -108.652107
v 2.526652 -0.496020 -104.888176
v 2.420663 0.080452 -109.544548
v 2.526652 -0.496020 -104.888176
v 16.174784 -0.304060 -108.652107
v 15.354321 -0.499044 -104.863579
v 19.043526 22.636164 -102.074669
v -1.069514 -0.499047 -102.074669
v -1.069517 22.636164 -102.074669
v 19.043533 -0.499047 -102.074669
v -1.069514 -0.499047 -102.074669
v 19.043526 22.636164 -102.074669
v 19.559246 22.636164 -102.074669
v 19.043533 -0.499047 -102.074669
v 19.043526 22.636164 -102.074669
v 19.559246 22.636164 -102.074669
v 19.559252 -0.499047 -102.074669
v 19.043533 -0.499047 -102.074669
v 19.559246 22.636164 -102.074669
v 19.848145 -0.705768 -100.857925
v 19.559252 -0.499047 -102.074669
v 19.848145 -0.705768 -100.857925
v 19.559246 22.636164 -102.074669
v 20.064749 22.636166 -100.817162
v 19.848145 -0.705768 -100.857925
v 20.064749 22.636166 -100.817162
v 19.866697 22.839941 -98.529732
v 19.866697 22.839941 -98.529732
v 20.064756 -0.499047 -98.302139
v 19.848145 -0.705768 -100.857925
v 20.064756 -0.499047 -98.302139
v 19.866697 22.839941 -98.529732
v 19.559248 22.636164 -97.044632
v 19.559248 22.636164 -97.044632
v 19.559252 -0.499050 -97.044640
v 20.064756 -0.499047 -98.302139
v 19.559252 -0.499050 -97.044640
v 19.559248 22.636164 -97.044632
v 19.042984 22.636164 -97.044632
v 19.559252 -0.499050 -97.044640
v 19.042984 22.636164 -97.044632
v 19.042988 -0.499050 -97.044640
v 19.042984 22.636164 -97.044632
v -1.091269 -0.499054 -97.044640
v 19.042988 -0.499050 -97.044640
v -1.091269 -0.499054 -97.044640
v 19.042984 22.636164 -97.044632
v -1.091272 22.636164 -97.044632
v 16.554106 21.724440 -89.717560
v -0.222729 -0.483611 -89.041786
v -0.222732 21.724436 -89.717560
v -0.222729 -0.483611 -89.041786
v 16.554106 21.724440 -89.717560
v 16.554111 -0.483608 -89.041786
v 17.162592 21.724440 -89.717560
v 16.554111 -0.483608 -89.041786
v 16.554106 21.724440 -89.717560
v 17.162592 21.724440 -89.717560
v 17.162598 -0.483608 -89.041786
v 16.554111 -0.483608 -89.041786
v 17.162598 -0.483608 -89.041786
v 17.162592 21.724440 -89.717560
v 17.591999 22.174229 -88.022057
v 17.591999 22.174229 -88.022057
v 17.414196 -0.830262 -87.322273
v 17.162598 -0.483608 -89.041786
v 17.591999 22.174229 -88.022057
v 17.162596 -0.379684 -85.626556
v 17.414196 -0.830262 -87.322273
v 17.162596 -0.379684 -85.626556
v 17.591999 22.174229 -88.022057
v 17.162592 21.828362 -86.302330
v 16.554111 -0.483608 -89.041786
v -0.263559 -0.379687 -85.626556
v -0.222729 -0.483611 -89.041786
v 17.414196 -0.830262 -87.322273
v -0.263559 -0.379687 -85.626556
v 16.554111 -0.483608 -89.041786
v 16.552681 -0.379684 -85.626556
v -0.263559 -0.379687 -85.626556
v 17.414196 -0.830262 -87.322273
v 16.012211 -0.525470 -83.682671
v -0.217569 21.478123 -83.693787
v -0.217565 -0.499057 -83.693794
v 15.907130 21.478127 -83.693787
v -0.217569 21.478123 -83.693787
v 16.012211 -0.525470 -83.682671
v 16.012211 -0.525470 -83.682671
v 16.224316 21.478127 -83.693787
v 15.907130 21.478127 -83.693787
v 16.061195 -0.670678 -85.628693
v 16.224316 21.478127 -83.693787
v 16.012211 -0.525470 -83.682671
v 16.224316 21.478127 -83.693787
v 16.061195 -0.670678 -85.628693
v 16.224312 21.478130 -85.620995
v 16.224312 21.478130 -85.620995
v 16.061195 -0.670678 -85.628693
v 15.895474 21.478130 -85.620995
v 15.895474 21.478130 -85.620995
v 16.061195 -0.670678 -85.628693
v -0.217562 -0.499061 -85.621002
v 15.895474 21.478130 -85.620995
v -0.217562 -0.499061 -85.621002
v -0.217565 21.478127 -85.620995
v 15.871777 -0.499050 -79.251122
v 1.142779 23.148664 -79.251114
v 1.142782 -0.499054 -79.251122
v 1.142779 23.148664 -79.251114
v 15.871777 -0.499050 -79.251122
v 15.871773 23.148670 -79.251114
v 16.782383 -0.495711 -79.747704
v 15.871773 23.148670 -79.251114
v 15.871777 -0.499050 -79.251122
v 15.871773 23.148670 -79.251114
v 16.782383 -0.495711 -79.747704
v 16.565708 23.348511 -80.321228
v 16.569050 -0.706193 -82.183853
v 16.565708 23.348511 -80.321228
v 16.782383 -0.495711 -79.747704
v 16.569050 -0.706193 -82.183853
v 16.781963 23.145987 -82.783257
v 16.565708 23.348511 -80.321228
v 16.781963 23.145987 -82.783257
v 16.569050 -0.706193 -82.183853
v 15.874712 -0.499050 -83.280350
v 16.781963 23.145987 -82.783257
v 15.874712 -0.499050 -83.280350
v 15.874708 23.148670 -83.280350
v 15.874708 23.148670 -83.280350
v 15.874712 -0.499050 -83.280350
v 1.240568 -0.499054 -83.280342
v 15.874708 23.148670 -83.280350
v 1.240568 -0.499054 -83.280342
v 1.240564 23.148668 -83.280342
v 18.238289 -0.499047 -61.761120
v -0.000010 28.024014 -61.761112
v -0.000009 -0.499050 -61.761120
v 18.238287 28.024014 -61.761112
v -0.000010 28.024014 -61.761112
v 18.238289 -0.499047 -61.761120
v 18.998219 -0.499047 -61.761120
v 18.238287 28.024014 -61.761112
v 18.238289 -0.499047 -61.761120
v 18.998219 -0.499047 -61.761120
v 18.998217 28.024014 -61.761112
v 18.238287 28.024014 -61.761112
v 18.998217 28.024014 -61.761112
v 18.998219 -0.499047 -61.761120
v 19.691492 -0.499044 -63.121590
v 19.691492 -0.499044 -63.121590
v 19.780476 28.024620 -63.240791
v 18.998217 28.024014 -61.761112
v 19.780476 28.024620 -63.240791
v 19.691492 -0.499044 -63.121590
v 19.756908 -0.499215 -65.750069
v 19.756908 -0.499215 -65.750069
v 19.691492 28.024014 -65.842529
v 19.780476 28.024620 -63.240791
v 18.998219 -0.499047 -67.203003
v 19.691492 28.024014 -65.842529
v 19.756908 -0.499215 -65.750069
v 19.691492 28.024014 -65.842529
v 18.998219 -0.499047 -67.203003
v 18.998217 28.024014 -67.203011
v 18.998219 -0.499047 -67.203003
v 18.226246 28.024014 -67.203011
v 18.998217 28.024014 -67.203011
v 18.226246 28.024014 -67.203011
v 18.998219 -0.499047 -67.203003
v 18.226246 -0.499047 -67.203003
v 18.226246 28.024014 -67.203011
v 18.226246 -0.499047 -67.203003
v -0.301106 -0.499047 -67.203003
v 18.226246 28.024014 -67.203011
v -0.301106 -0.499047 -67.203003
v -0.301108 28.024017 -67.203003
v 16.554111 21.719267 -61.666546
v -0.222722 -0.499061 -61.666553
v -0.222727 21.719263 -61.666546
v -0.222722 -0.499061 -61.666553
v 16.554111 21.719267 -61.666546
v 16.554117 -0.499057 -61.666553
v 17.162598 21.719267 -61.666546
v 16.554117 -0.499057 -61.666553
v 16.554111 21.719267 -61.666546
v 16.554117 -0.499057 -61.666553
v 17.162598 21.719267 -61.666546
v 17.162601 -0.499057 -61.666553
v 17.162601 -0.499057 -61.666553
v 17.162598 21.719267 -61.666546
v 17.591990 22.117313 -59.958218
v 17.591990 22.117313 -59.958218
v 17.414246 -0.897797 -59.958141
v 17.162601 -0.499057 -61.666553
v 17.591990 22.117313 -59.958218
v 17.162601 -0.499054 -58.249744
v 17.414246 -0.897797 -59.958141
v 17.162601 -0.499054 -58.249744
v 17.591990 22.117313 -59.958218
v 17.162598 21.719269 -58.249737
v 17.162601 -0.499054 -58.249744
v 17.162598 21.719269 -58.249737
v 16.552681 21.719269 -58.249737
v 17.162601 -0.499054 -58.249744
v 16.552681 21.719269 -58.249737
v 16.552687 -0.499054 -58.249744
v 16.552681 21.719269 -58.249737
v -0.263552 -0.499057 -58.249744
v 16.552687 -0.499054 -58.249744
v -0.263552 -0.499057 -58.249744
v 16.552681 21.719269 -58.249737
v -0.263555 21.719267 -58.249737
v 16.554117 -0.499057 -61.666553
v -0.263552 -0.499057 -58.249744
v -0.222722 -0.499061 -61.666553
v 17.414246 -0.897797 -59.958141
v -0.263552 -0.499057 -58.249744
v 16.554117 -0.499057 -61.666553
v 16.552687 -0.499054 -58.249744
v -0.263552 -0.499057 -58.249744
v 17.414246 -0.897797 -59.958141
v 19.043533 22.636160 -54.366447
v -1.069504 -0.499054 -54.366447
v -1.069509 22.636160 -54.366447
v 19.043541 -0.499050 -54.366447
v -1.069504 -0.499054 -54.366447
v 19.043533 22.636160 -54.366447
v 19.559256 22.636160 -54.366447
v 19.043541 -0.499050 -54.366447
v 19.043533 22.636160 -54.366447
v 19.559256 22.636160 -54.366447
v 19.559259 -0.499050 -54.366447
v 19.043541 -0.499050 -54.366447
v 19.863579 22.868862 -53.060829
v 19.559259 -0.499050 -54.366447
v 19.559256 22.636160 -54.366447
v 19.559259 -0.499050 -54.366447
v 19.863579 22.868862 -53.060829
v 20.064764 -0.499054 -53.108940
v 19.863579 22.868862 -53.060829
v 19.858343 -0.690720 -50.813396
v 20.064764 -0.499054 -53.108940
v 19.858343 -0.690720 -50.813396
v 19.863579 22.868862 -53.060829
v 20.044907 22.639605 -50.185429
v 20.044907 22.639605 -50.185429
v 19.559259 -0.499057 -49.336407
v 19.858343 -0.690720 -50.813396
v 19.559259 -0.499057 -49.336407
v 20.044907 22.639605 -50.185429
v 19.042994 22.636160 -49.336399
v 19.559259 -0.499057 -49.336407
v 19.042994 22.636160 -49.336399
v 19.042997 -0.499057 -49.336407
v 19.042994 22.636160 -49.336399
v -1.091258 -0.499061 -49.336407
v 19.042997 -0.499057 -49.336407
v -1.091258 -0.499061 -49.336407
v 19.042994 22.636160 -49.336399
v -1.091263 22.636160 -49.336399
v 16.144684 -0.774349 -56.279427
v 1.554622 -0.499050 -58.188343
v 15.645566 -0.499050 -58.188343
v 1.554622 -0.499050 -58.188343
v 16.144684 -0.774349 -56.279427
v 1.413039 -0.499054 -54.360355
v 16.144684 -0.774349 -56.279427
v 15.574775 -0.499050 -54.360355
v 1.413039 -0.499054 -54.360355
v 14.055599 -0.499057 -38.700371
v 3.120325 16.906866 -38.720234
v 3.090833 -0.499061 -38.700371
v 3.120325 16.906866 -38.720234
v 14.055599 -0.499057 -38.700371
v 14.055595 16.910410 -38.700378
v 14.484184 -0.650775 -39.093082
v 14.055595 16.910410 -38.700378
v 14.055599 -0.499057 -38.700371
v 14.484184 -0.650775 -39.093082
v 14.739808 16.908485 -39.482666
v 14.055595 16.910410 -38.700378
v 14.739808 16.908485 -39.482666
v 14.484184 -0.650775 -39.093082
v 14.762291 -0.497280 -41.712170
v 14.762291 -0.497280 -41.712170
v 14.428564 17.018156 -42.118492
v 14.739808 16.908485 -39.482666
v 14.428564 17.018156 -42.118492
v 14.762291 -0.497280 -41.712170
v 14.061739 -0.499064 -42.497444
v 14.428564 17.018156 -42.118492
v 14.061739 -0.499064 -42.497444
v 14.061736 16.910408 -42.497452
v 14.061736 16.910408 -42.497452
v 14.061739 -0.499064 -42.497444
v 3.306451 -0.486973 -42.456337
v 14.061736 16.910408 -42.497452
v 3.306451 -0.486973 -42.456337
v 3.272194 16.909508 -42.490356
v 14.428564 17.018156 -42.118492
v 3.120325 16.906866 -38.720234
v 14.055595 16.910410 -38.700378
v 3.120325 16.906866 -38.720234
v 14.428564 17.018156 -42.118492
v 3.272194 16.909508 -42.490356
v 3.272194 16.909508 -42.490356
v 14.428564 17.018156 -42.118492
v 14.061736 16.910408 -42.497452
v 16.142403 24.212620 -48.175388
v 15.959351 -0.524618 -49.091286
v 15.959346 23.997387 -49.221214
v 15.959351 -0.524618 -49.091286
v 16.142403 24.212620 -48.175388
v 16.495386 -0.517812 -47.811394
v 16.495386 -0.517812 -47.811394
v 16.142403 24.212620 -48.175388
v 16.509260 24.016424 -45.644516
v 16.509260 24.016424 -45.644516
v 16.200850 -0.773651 -45.519791
v 16.495386 -0.517812 -47.811394
v 16.509260 24.016424 -45.644516
v 15.959350 -0.499050 -44.266930
v 16.200850 -0.773651 -45.519791
v 15.959350 -0.499050 -44.266930
v 16.509260 24.016424 -45.644516
v 15.959344 24.022947 -44.396854
v 16.142403 24.212620 -48.175388
v 2.568425 24.018406 -44.463558
v 15.354325 24.022947 -44.396854
v 2.568425 24.018406 -44.463558
v 16.142403 24.212620 -48.175388
v 2.324838 24.001116 -49.200062
v 2.324838 24.001116 -49.200062
v 16.142403 24.212620 -48.175388
v 15.345246 23.997387 -49.221214
v 16.161766 -0.499054 -17.537682
v 16.494478 23.290169 -19.616528
v 16.161764 23.303429 -17.702600
v 16.494478 23.290169 -19.616528
v 16.161766 -0.499054 -17.537682
v 16.494478 -0.512317 -19.451624
v 16.494478 -0.512317 -19.451624
v 16.161764 23.276907 -21.530470
v 16.494478 23.290169 -19.616528
v 16.161764 23.276907 -21.530470
v 16.494478 -0.512317 -19.451624
v 16.161764 -0.525576 -21.365564
v 15.871790 -0.499057 -13.481776
v 1.142791 23.148659 -13.481790
v 1.142796 -0.499061 -13.481776
v 1.142791 23.148659 -13.481790
v 15.871790 -0.499057 -13.481776
v 15.871786 23.148664 -13.481790
v 16.327326 -0.499057 -13.481776
v 15.871786 23.148664 -13.481790
v 15.871790 -0.499057 -13.481776
v 15.871786 23.148664 -13.481790
v 16.327326 -0.499057 -13.481776
v 16.495104 23.259537 -14.247591
v 16.495104 23.259537 -14.247591
v 16.327326 -0.499057 -13.481776
v 16.695635 -0.749804 -14.612098
v 16.495104 23.259537 -14.247591
v 16.695635 -0.749804 -14.612098
v 16.865917 23.143620 -17.038715
v 16.758532 -0.501841 -16.849401
v 16.865917 23.143620 -17.038715
v 16.695635 -0.749804 -14.612098
v 16.865917 23.143620 -17.038715
v 16.758532 -0.501841 -16.849401
v 15.874725 -0.499057 -17.511026
v 16.865917 23.143620 -17.038715
v 15.874725 -0.499057 -17.511026
v 15.874721 23.148664 -17.511011
v 15.874721 23.148664 -17.511011
v 15.874725 -0.499057 -17.511026
v 1.240581 -0.499061 -17.511026
v 15.874721 23.148664 -17.511011
v 1.240581 -0.499061 -17.511026
v 1.240578 23.148663 -17.511011
v 18.998230 27.841686 -8.247396
v 19.691504 -0.405296 -4.061261
v 18.998232 -0.540393 -5.414996
v 19.691504 -0.405296 -4.061261
v 18.998230 27.841686 -8.247396
v 19.757076 27.986238 -6.800545
v 19.757076 27.986238 -6.800545
v 19.780113 -0.146927 -1.469119
v 19.691504 -0.405296 -4.061261
v 19.691504 28.246981 -4.186148
v 19.780113 -0.146927 -1.469119
v 19.757076 27.986238 -6.800545
v 19.691504 28.246981 -4.186148
v 18.998230 -0.000003 -0.000000
v 19.780113 -0.146927 -1.469119
v 18.998230 -0.000003 -0.000000
v 19.691504 28.246981 -4.186148
v 18.998228 28.382076 -2.832399
v 17.162603 21.835531 -32.311943
v 17.498314 -0.831026 -31.709965
v 17.162607 -0.365920 -33.177681
v 17.498314 -0.831026 -31.709965
v 17.162603 21.835531 -32.311943
v 17.527174 22.167538 -30.379887
v 17.527174 22.167538 -30.379887
v 17.162605 -0.499057 -29.763474
v 17.498314 -0.831026 -31.709965
v 17.162605 -0.499057 -29.763474
v 17.527174 22.167538 -30.379887
v 17.162603 21.702394 -28.897722
v 16.554121 -0.365920 -33.177681
v -0.263547 -0.499061 -29.763474
v -0.222717 -0.365927 -33.177681
v 17.498314 -0.831026 -31.709965
v -0.263547 -0.499061 -29.763474
v 16.554121 -0.365920 -33.177681
v 16.552692 -0.499057 -29.763474
v -0.263547 -0.499061 -29.763474
v 17.498314 -0.831026 -31.709965
v 15.354321 -0.499044 -104.863579
v 2.514470 23.865877 -102.089439
v 2.526652 -0.496020 -104.888176
v 2.514470 23.865877 -102.089439
v 15.354321 -0.499044 -104.863579
v 15.354315 23.865883 -102.089439
v 15.354321 -0.499044 -104.863579
v 15.959333 23.865883 -102.089439
v 15.354315 23.865883 -102.089439
v 15.959333 23.865883 -102.089439
v 15.354321 -0.499044 -104.863579
v 15.959337 -0.499044 -104.863579
v 15.959337 -0.499044 -104.863579
v 16.414936 24.002325 -103.287811
v 15.959333 23.865883 -102.089439
v 16.414936 24.002325 -103.287811
v 15.959337 -0.499044 -104.863579
v 16.526560 -0.353699 -106.143860
v 16.414936 24.002325 -103.287811
v 16.526560 -0.353699 -106.143860
v 16.337193 24.596996 -105.441307
v 16.337193 24.596996 -105.441307
v 16.526560 -0.353699 -106.143860
v 16.174784 -0.304060 -108.652107
v 16.174784 -0.304060 -108.652107
v 15.959335 24.411654 -106.882896
v 16.337193 24.596996 -105.441307
v 15.959335 24.411654 -106.882896
v 16.174784 -0.304060 -108.652107
v 15.959341 0.046723 -109.657021
v 15.959335 24.411654 -106.882896
v 15.959341 0.046723 -109.657021
v 15.345240 0.046723 -109.657021
v 15.959335 24.411654 -106.882896
v 15.345240 0.046723 -109.657021
v 15.345236 24.411654 -106.882896
v 15.345240 0.046723 -109.657021
v 2.312673 24.411646 -106.882896
v 15.345236 24.411654 -106.882896
v 2.312673 24.411646 -106.882896
v 15.345240 0.046723 -109.657021
v 2.420663 0.080452 -109.544548
v 15.354315 23.865883 -102.089439
v 2.900093 24.130463 -104.484268
v 2.514470 23.865877 -102.089439
v 16.337193 24.596996 -105.441307
v 2.900093 24.130463 -104.484268
v 15.354315 23.865883 -102.089439
v 2.900093 24.130463 -104.484268
v 16.337193 24.596996 -105.441307
v 15.345236 24.411654 -106.882896
v 15.345236 24.411654 -106.882896
v 2.312673 24.411646 -106.882896
v 2.900093 24.130463 -104.484268
v 17.084246 -0.516486 -91.503372
v 18.213587 20.384130 -93.995049
v 17.076532 20.395149 -91.500168
v 18.213587 20.384130 -93.995049
v 17.084246 -0.516486 -91.503372
v 18.001575 -0.498283 -93.338219
v 18.213587 20.384130 -93.995049
v 18.001575 -0.498283 -93.338219
v 17.207453 -0.550998 -96.838997
v 17.207453 -0.550998 -96.838997
v 17.122072 20.413528 -96.840881
v 18.213587 20.384130 -93.995049
v 17.162596 -0.379684 -85.626556
v 17.162592 21.828362 -86.302330
v 16.552675 21.828362 -86.302330
v 17.162596 -0.379684 -85.626556
v 16.552675 21.828362 -86.302330
v 16.552681 -0.379684 -85.626556
v 16.552675 21.828362 -86.302330
v -0.263559 -0.379687 -85.626556
v 16.552681 -0.379684 -85.626556
v -0.263559 -0.379687 -85.626556
v 16.552675 21.828362 -86.302330
v -0.263560 21.828360 -86.302330
v 17.084311 -0.516534 -67.250404
v 18.213612 20.384090 -69.742393
v 17.076563 20.395155 -67.247169
v 18.213612 20.384090 -69.742393
v 17.084311 -0.516534 -67.250404
v 18.001696 -0.498287 -69.086159
v 18.213612 20.384090 -69.742393
v 18.001696 -0.498287 -69.086159
v 17.207241 -0.550821 -72.586258
v 17.207241 -0.550821 -72.586258
v 17.122156 20.413528 -72.587868
v 18.213612 20.384090 -69.742393
v 1.413039 -0.499054 -54.360355
v 15.690334 23.310192 -54.361614
v 1.413037 23.304001 -54.360363
v 15.690334 23.310192 -54.361614
v 1.413039 -0.499054 -54.360355
v 15.574775 -0.499050 -54.360355
v 16.161758 -0.499050 -54.360363
v 15.690334 23.310192 -54.361614
v 15.574775 -0.499050 -54.360355
v 16.161758 -0.499050 -54.360363
v 16.161757 23.304001 -54.360371
v 15.690334 23.310192 -54.361614
v 16.161758 -0.499050 -54.360363
v 16.494471 23.304003 -56.274353
v 16.161757 23.304001 -54.360371
v 16.494471 23.304003 -56.274353
v 16.161758 -0.499050 -54.360363
v 16.144684 -0.774349 -56.279427
v 16.161757 -0.499050 -58.188343
v 16.494471 23.304003 -56.274353
v 16.144684 -0.774349 -56.279427
v 16.494471 23.304003 -56.274353
v 16.161757 -0.499050 -58.188343
v 16.161757 23.304003 -58.188335
v 16.161757 -0.499050 -58.188343
v 15.645564 23.304003 -58.188332
v 16.161757 23.304003 -58.188335
v 15.645564 23.304003 -58.188332
v 16.161757 -0.499050 -58.188343
v 15.645566 -0.499050 -58.188343
v 15.645564 23.304003 -58.188332
v 15.645566 -0.499050 -58.188343
v 1.554622 -0.499050 -58.188343
v 15.645564 23.304003 -58.188332
v 1.554622 -0.499050 -58.188343
v 1.554620 23.303999 -58.188332
v 17.084272 -0.516495 -33.231812
v 18.213520 20.384073 -35.721550
v 17.076536 20.395155 -33.228580
v 18.213520 20.384073 -35.721550
v 17.084272 -0.516495 -33.231812
v 18.001768 -0.498281 -35.068226
v 18.213520 20.384073 -35.721550
v 18.001768 -0.498281 -35.068226
v 17.207106 -0.550677 -38.567860
v 17.207106 -0.550677 -38.567860
v 17.122248 20.413610 -38.569244
v 18.213520 20.384073 -35.721550
v 15.354330 -0.499050 -44.266930
v 2.568425 24.018406 -44.463558
v 2.514486 -0.499061 -44.266930
v 2.568425 24.018406 -44.463558
v 15.354330 -0.499050 -44.266930
v 15.354325 24.022947 -44.396854
v 15.354330 -0.499050 -44.266930
v 15.959344 24.022947 -44.396854
v 15.354325 24.022947 -44.396854
v 15.959344 24.022947 -44.396854
v 15.354330 -0.499050 -44.266930
v 15.959350 -0.499050 -44.266930
v 15.959346 23.997387 -49.221214
v 15.959351 -0.524618 -49.091286
v 15.345251 -0.524618 -49.091286
v 15.959346 23.997387 -49.221214
v 15.345251 -0.524618 -49.091286
v 15.345246 23.997387 -49.221214
v 15.345251 -0.524618 -49.091286
v 2.324838 24.001116 -49.200062
v 15.345246 23.997387 -49.221214
v 2.324838 24.001116 -49.200062
v 15.345251 -0.524618 -49.091286
v 2.312689 -0.524625 -49.091286
v 15.345251 -0.524618 -49.091286
v 2.893615 -0.511429 -46.593964
v 2.312689 -0.524625 -49.091286
v 16.200850 -0.773651 -45.519791
v 2.893615 -0.511429 -46.593964
v 15.345251 -0.524618 -49.091286
v 2.893615 -0.511429 -46.593964
v 16.200850 -0.773651 -45.519791
v 15.354330 -0.499050 -44.266930
v 15.354330 -0.499050 -44.266930
v 2.514486 -0.499061 -44.266930
v 2.893615 -0.511429 -46.593964
v 1.413046 -0.499054 -17.537682
v 15.574781 23.303429 -17.702585
v 1.413046 23.303429 -17.702585
v 15.574781 23.303429 -17.702585
v 1.413046 -0.499054 -17.537682
v 15.735347 -0.511013 -17.542418
v 16.161766 -0.499054 -17.537682
v 15.574781 23.303429 -17.702585
v 15.735347 -0.511013 -17.542418
v 16.161766 -0.499054 -17.537682
v 16.161764 23.303429 -17.702600
v 15.574781 23.303429 -17.702585
v 17.084211 -0.516463 -7.719412
v 18.213490 20.384106 -10.208862
v 17.076525 20.395123 -7.716223
v 18.213490 20.384106 -10.208862
v 17.084211 -0.516463 -7.719412
v 18.001356 -0.498296 -9.552806
v 18.213490 20.384106 -10.208862
v 18.001356 -0.498296 -9.552806
v 17.207481 -0.550988 -13.055206
v 17.207481 -0.550988 -13.055206
v 17.122164 20.413557 -13.056904
v 18.213490 20.384106 -10.208862
v 18.998232 -0.540393 -5.414996
v 18.226255 27.841686 -8.247396
v 18.998230 27.841686 -8.247396
v 18.226255 27.841686 -8.247396
v 18.998232 -0.540393 -5.414996
v 18.226257 -0.540393 -5.414996
v 18.226255 27.841686 -8.247396
v 18.226257 -0.540393 -5.414996
v -0.301096 -0.540393 -5.414996
v 18.226255 27.841686 -8.247396
v -0.301096 -0.540393 -5.414996
v -0.301097 27.841690 -8.247396
v 17.084347 -0.516557 -21.644100
v 18.213663 20.384047 -24.136105
v 17.076565 20.395159 -21.640827
v 18.213663 20.384047 -24.136105
v 17.084347 -0.516557 -21.644100
v 18.002121 -0.498292 -23.482969
v 18.213663 20.384047 -24.136105
v 18.002121 -0.498292 -23.482969
v 17.206633 -0.550382 -26.980312
v 17.206633 -0.550382 -26.980312
v 17.122101 20.413462 -26.981583
v 18.213663 20.384047 -24.136105
v -0.222722 21.835527 -32.311943
v 16.554121 -0.365920 -33.177681
v -0.222717 -0.365927 -33.177681
v 16.554121 -0.365920 -33.177681
v -0.222722 21.835527 -32.311943
v 16.554117 21.835531 -32.311943
v 17.162603 21.835531 -32.311943
v 16.554121 -0.365920 -33.177681
v 16.554117 21.835531 -32.311943
v 17.162603 21.835531 -32.311943
v 17.162607 -0.365920 -33.177681
v 16.554121 -0.365920 -33.177681
v 17.162605 -0.499057 -29.763474
v 17.162603 21.702394 -28.897722
v 16.552687 21.702394 -28.897722
v 17.162605 -0.499057 -29.763474
v 16.552687 21.702394 -28.897722
v 16.552692 -0.499057 -29.763474
v 16.552687 21.702394 -28.897722
v -0.263547 -0.499061 -29.763474
v 16.552692 -0.499057 -29.763474
v -0.263547 -0.499061 -29.763474
v 16.552687 21.702394 -28.897722
v -0.263548 21.702393 -28.897722
v 18.238289 -0.499047 -61.761120
v 19.165239 -0.499045 -64.521835
v 18.998219 -0.499047 -61.761120
v 19.691492 -0.499044 -63.121590
v 18.998219 -0.499047 -61.761120
v 19.165239 -0.499045 -64.521835
v 19.756908 -0.499215 -65.750069
v 19.691492 -0.499044 -63.121590
v 19.165239 -0.499045 -64.521835
v 18.998219 -0.499047 -67.203003
v 19.756908 -0.499215 -65.750069
v 19.165239 -0.499045 -64.521835
v 18.226246 -0.499047 -67.203003
v 18.998219 -0.499047 -67.203003
v 19.165239 -0.499045 -64.521835
v 18.226246 28.024014 -67.203011
v 19.165243 28.024019 -64.521774
v 18.998217 28.024014 -67.203011
v 19.691492 28.024014 -65.842529
v 18.998217 28.024014 -67.203011
v 19.165243 28.024019 -64.521774
v 19.780476 28.024620 -63.240791
v 19.691492 28.024014 -65.842529
v 19.165243 28.024019 -64.521774
v 18.998217 28.024014 -61.761112
v 19.780476 28.024620 -63.240791
v 19.165243 28.024019 -64.521774
v 18.238287 28.024014 -61.761112
v 18.998217 28.024014 -61.761112
v 19.165243 28.024019 -64.521774
v 18.238300 -0.000003 -0.000000
v 19.165449 -0.266126 -2.666692
v 18.998230 -0.000003 -0.000000
v 19.780113 -0.146927 -1.469119
v 18.998230 -0.000003 -0.000000
v 19.165449 -0.266126 -2.666692
v 19.691504 -0.405296 -4.061261
v 19.780113 -0.146927 -1.469119
v 19.165449 -0.266126 -2.666692
v 18.998232 -0.540393 -5.414996
v 19.691504 -0.405296 -4.061261
v 19.165449 -0.266126 -2.666692
v 18.226257 -0.540393 -5.414996
v 18.998232 -0.540393 -5.414996
v 19.165449 -0.266126 -2.666692
v 18.226255 27.841686 -8.247396
v 19.165253 28.107946 -5.579332
v 18.998230 27.841686 -8.247396
v 19.757076 27.986238 -6.800545
v 18.998230 27.841686 -8.247396
v 19.165253 28.107946 -5.579332
v 19.691504 28.246981 -4.186148
v 19.757076 27.986238 -6.800545
v 19.165253 28.107946 -5.579332
v 18.998228 28.382076 -2.832399
v 19.691504 28.246981 -4.186148
v 19.165253 28.107946 -5.579332
v 18.238300 28.382076 -2.832399
v 18.998228 28.382076 -2.832399
v 19.165253 28.107946 -5.579332

vt 0.682617 0.994884
vt 0.661621 0.986855
vt 0.701172 0.986526
vt 0.700684 0.989265
vt 0.675293 0.994503
vt 0.661621 0.987762
vt 0.124695 0.422852
vt 0.146973 0.428223
vt 0.128418 0.429688
vt 0.124695 0.423340
vt 0.147217 0.428711
vt 0.128418 0.430664
vt 0.827637 0.987076
vt 0.800781 0.993229
vt 0.788086 0.986801
vt 0.827148 0.989174
vt 0.801758 0.994511
vt 0.788086 0.987762
vt 0.725098 0.994884
vt 0.704102 0.986855
vt 0.743652 0.986526
vt 0.743164 0.989258
vt 0.717773 0.994503
vt 0.704102 0.987770
vt 0.123108 0.216797
vt 0.102783 0.214844
vt 0.129150 0.211426
vt 0.123108 0.218262
vt 0.102661 0.215820
vt 0.129150 0.212891
vt 0.851074 0.994884
vt 0.830078 0.986855
vt 0.869141 0.986526
vt 0.868652 0.989258
vt 0.843262 0.994503
vt 0.830078 0.987762
vt 0.682617 0.994881
vt 0.661621 0.986855
vt 0.701172 0.986526
vt 0.700684 0.989265
vt 0.675293 0.994503
vt 0.661621 0.987762
vt 0.124695 0.423340
vt 0.149536 0.428223
vt 0.128296 0.431152
vt 0.766113 0.994884
vt 0.745117 0.986855
vt 0.784668 0.986526
vt 0.784180 0.989243
vt 0.758789 0.994507
vt 0.745117 0.987770
vt 0.828613 0.454590
vt 0.841797 0.461426
vt 0.828613 0.459473
vt 0.854492 0.459473
vt 0.841797 0.461426
vt 0.854492 0.454590
vt 0.828613 0.455078
vt 0.841797 0.462891
vt 0.828613 0.459473
vt 0.854492 0.459473
vt 0.841797 0.462891
vt 0.854492 0.455078
vt 0.828613 0.454590
vt 0.841797 0.461426
vt 0.828613 0.459473
vt 0.854492 0.459473
vt 0.841797 0.461426
vt 0.854492 0.454590
vt 0.828613 0.455078
vt 0.841797 0.462891
vt 0.828613 0.459473
vt 0.854492 0.459473
vt 0.841797 0.462891
vt 0.854492 0.455078
vt 0.679688 0.812134
vt 0.689941 0.818481
vt 0.679688 0.816040
vt 0.711914 0.819824
vt 0.689941 0.818481
vt 0.718750 0.812012
vt 0.426758 0.839966
vt 0.415283 0.839844
vt 0.427002 0.837891
vt 0.404053 0.837524
vt 0.415283 0.839844
vt 0.403809 0.839966
vt 0.124695 0.422852
vt 0.133301 0.429199
vt 0.124695 0.426270
vt 0.133301 0.429199
vt 0.155396 0.422852
vt 0.150391 0.429688
vt 0.828613 0.454590
vt 0.843262 0.461914
vt 0.828613 0.459473
vt 0.854492 0.459473
vt 0.843262 0.461914
vt 0.854492 0.454590
vt 0.828613 0.455078
vt 0.843262 0.462402
vt 0.828613 0.459473
vt 0.854492 0.459473
vt 0.843262 0.462402
vt 0.854492 0.455078
vt 0.111877 0.409668
vt 0.122681 0.415527
vt 0.111877 0.413574
vt 0.148682 0.413574
vt 0.122681 0.415527
vt 0.148682 0.409668
vt 0.148682 0.413574
vt 0.139526 0.416016
vt 0.122681 0.415527
vt 0.148682 0.414551
vt 0.140747 0.416016
vt 0.148682 0.411133
vt 0.111877 0.411133
vt 0.140747 0.416016
vt 0.111877 0.414551
vt 0.121704 0.417969
vt 0.111877 0.414551
vt 0.140747 0.416016
vt 0.718750 0.816040
vt 0.707031 0.818481
vt 0.718750 0.812012
vt 0.679688 0.812134
vt 0.707031 0.818481
vt 0.679688 0.816040
vt 0.689453 0.819946
vt 0.679688 0.816040
vt 0.707031 0.818481
vt 0.718750 0.815918
vt 0.709473 0.818115
vt 0.718750 0.811890
vt 0.679688 0.811890
vt 0.709473 0.818115
vt 0.679688 0.815918
vt 0.689453 0.819824
vt 0.679688 0.815918
vt 0.709473 0.818115
vt 0.679688 0.811890
vt 0.690918 0.818237
vt 0.679688 0.815918
vt 0.718750 0.815918
vt 0.690918 0.818237
vt 0.718750 0.811890
vt 0.718750 0.815918
vt 0.708984 0.819824
vt 0.690918 0.818237
vt 0.111877 0.411133
vt 0.121460 0.416016
vt 0.111877 0.414551
vt 0.148682 0.414551
vt 0.121460 0.416016
vt 0.148682 0.411133
vt 0.148682 0.414551
vt 0.138916 0.417969
vt 0.121460 0.416016
vt 0.111877 0.409668
vt 0.119873 0.414551
vt 0.111877 0.413574
vt 0.148682 0.413574
vt 0.119873 0.414551
vt 0.148682 0.409668
vt 0.148682 0.413574
vt 0.139160 0.416992
vt 0.119873 0.414551
vt 0.301758 0.632568
vt 0.349609 0.827515
vt 0.301758 0.827515
vt 0.349609 0.827515
vt 0.301758 0.632568
vt 0.349609 0.632568
vt 0.869629 0.829590
vt 0.995117 0.995705
vt 0.870605 0.995926
vt 0.995117 0.995705
vt 0.869629 0.829590
vt 0.995117 0.829956
vt 0.349854 0.640869
vt 0.302979 0.823120
vt 0.302979 0.640869
vt 0.302979 0.823120
vt 0.349854 0.640869
vt 0.349854 0.823120
vt 0.349854 0.640869
vt 0.302979 0.777588
vt 0.302979 0.642334
vt 0.302979 0.777588
vt 0.349854 0.640869
vt 0.349609 0.778687
vt 0.659180 0.995777
vt 0.536133 0.829956
vt 0.659180 0.829834
vt 0.536133 0.829956
vt 0.659180 0.995777
vt 0.536133 0.995705
vt 0.303223 0.776489
vt 0.302979 0.639404
vt 0.349854 0.776123
vt 0.302979 0.639404
vt 0.349854 0.640869
vt 0.349854 0.776123
vt 0.145752 0.994240
vt 0.004822 0.994240
vt 0.145752 0.807739
vt 0.145752 0.807739
vt 0.004822 0.994240
vt 0.004822 0.807739
vt 0.153442 0.807739
vt 0.293701 0.994240
vt 0.153442 0.994240
vt 0.293701 0.994240
vt 0.153442 0.807739
vt 0.293701 0.807739
vt 0.153442 0.994240
vt 0.145752 0.807739
vt 0.153442 0.807739
vt 0.145752 0.807739
vt 0.153442 0.994240
vt 0.145752 0.994240
vt 0.303955 0.777832
vt 0.349365 0.634766
vt 0.349365 0.777954
vt 0.349365 0.634766
vt 0.303955 0.777832
vt 0.303955 0.634033
vt 0.349121 0.634033
vt 0.303711 0.824341
vt 0.303711 0.634033
vt 0.303711 0.824341
vt 0.349121 0.634033
vt 0.349121 0.824341
vt 0.349365 0.777832
vt 0.303955 0.634766
vt 0.349365 0.634033
vt 0.303955 0.634766
vt 0.349365 0.777832
vt 0.303955 0.777954
vt 0.302490 0.632080
vt 0.350098 0.825806
vt 0.302490 0.825806
vt 0.350098 0.825806
vt 0.302490 0.632080
vt 0.350098 0.632080
vt 0.303711 0.774170
vt 0.303955 0.636475
vt 0.350098 0.774536
vt 0.350098 0.774536
vt 0.303955 0.636475
vt 0.349854 0.631348
vt 0.304932 0.631348
vt 0.350830 0.824829
vt 0.304932 0.824829
vt 0.350830 0.824829
vt 0.304932 0.631348
vt 0.350830 0.631348
vt 0.657227 0.182617
vt 0.671387 0.181641
vt 0.671387 0.182617
vt 0.671387 0.181641
vt 0.657227 0.182617
vt 0.657227 0.181641
vt 0.351074 0.682861
vt 0.351074 0.819580
vt 0.305176 0.819580
vt 0.305176 0.819580
vt 0.305176 0.677734
vt 0.351074 0.682861
vt 0.349854 0.827271
vt 0.302979 0.633057
vt 0.349854 0.633057
vt 0.302979 0.633057
vt 0.349854 0.827271
vt 0.302979 0.827271
vt 0.870117 0.829956
vt 0.995117 0.995705
vt 0.870605 0.995892
vt 0.995117 0.995705
vt 0.870117 0.829956
vt 0.995117 0.829956
vt 0.349854 0.823120
vt 0.302979 0.640869
vt 0.349854 0.640869
vt 0.302979 0.640869
vt 0.349854 0.823120
vt 0.302979 0.823120
vt 0.349854 0.640869
vt 0.302979 0.777588
vt 0.302979 0.642334
vt 0.302979 0.777588
vt 0.349854 0.640869
vt 0.350098 0.778442
vt 0.659668 0.996128
vt 0.536133 0.829956
vt 0.659180 0.829834
vt 0.536133 0.829956
vt 0.659668 0.996128
vt 0.536133 0.995705
vt 0.302979 0.776489
vt 0.302979 0.639404
vt 0.350098 0.776855
vt 0.302979 0.639404
vt 0.349854 0.640869
vt 0.350098 0.776855
vt 0.869629 0.829590
vt 0.995117 0.995705
vt 0.870605 0.995926
vt 0.995117 0.995705
vt 0.869629 0.829590
vt 0.995117 0.829956
vt 0.302979 0.640869
vt 0.349854 0.823120
vt 0.302979 0.823120
vt 0.349854 0.823120
vt 0.302979 0.640869
vt 0.349854 0.640869
vt 0.349854 0.640869
vt 0.302979 0.777588
vt 0.302979 0.642334
vt 0.302979 0.777588
vt 0.349854 0.640869
vt 0.349609 0.778687
vt 0.659180 0.995777
vt 0.536133 0.829956
vt 0.659180 0.829834
vt 0.536133 0.829956
vt 0.659180 0.995777
vt 0.536133 0.995705
vt 0.303223 0.776489
vt 0.302979 0.639404
vt 0.349854 0.776123
vt 0.302979 0.639404
vt 0.349854 0.640869
vt 0.349854 0.776123
vt 0.303467 0.635498
vt 0.350098 0.820801
vt 0.303467 0.820801
vt 0.350098 0.820801
vt 0.303467 0.635498
vt 0.350098 0.635498
vt 0.350098 0.632080
vt 0.302490 0.825806
vt 0.302490 0.632080
vt 0.302490 0.825806
vt 0.350098 0.632080
vt 0.350098 0.825806
vt 0.301758 0.632568
vt 0.349609 0.827515
vt 0.301758 0.827515
vt 0.349609 0.827515
vt 0.301758 0.632568
vt 0.349609 0.632568
vt 0.349854 0.631592
vt 0.302490 0.826538
vt 0.302490 0.631592
vt 0.302490 0.826538
vt 0.349854 0.631592
vt 0.349854 0.826538
vt 0.303223 0.706543
vt 0.350098 0.822388
vt 0.302734 0.822021
vt 0.350098 0.822388
vt 0.303223 0.706543
vt 0.350586 0.705566
vt 0.349365 0.823730
vt 0.302246 0.635254
vt 0.350098 0.635254
vt 0.302246 0.635254
vt 0.349365 0.823730
vt 0.302002 0.823853
vt 0.869629 0.829590
vt 0.995117 0.995705
vt 0.870605 0.995926
vt 0.995117 0.995705
vt 0.869629 0.829590
vt 0.995117 0.829956
vt 0.349854 0.640869
vt 0.302979 0.823120
vt 0.302979 0.640869
vt 0.302979 0.823120
vt 0.349854 0.640869
vt 0.349854 0.823120
vt 0.349854 0.640869
vt 0.302979 0.777588
vt 0.302979 0.642334
vt 0.302979 0.777588
vt 0.349854 0.640869
vt 0.349609 0.778687
vt 0.659180 0.995777
vt 0.536133 0.829956
vt 0.659180 0.829834
vt 0.536133 0.829956
vt 0.659180 0.995777
vt 0.536133 0.995705
vt 0.303223 0.776489
vt 0.302979 0.639404
vt 0.349854 0.776123
vt 0.302979 0.639404
vt 0.349854 0.640869
vt 0.349854 0.776123
vt 0.145752 0.994240
vt 0.004822 0.994240
vt 0.145752 0.807739
vt 0.145752 0.807739
vt 0.004822 0.994240
vt 0.004822 0.807739
vt 0.153442 0.807739
vt 0.293701 0.994240
vt 0.153442 0.994240
vt 0.293701 0.994240
vt 0.153442 0.807739
vt 0.293701 0.807739
vt 0.145752 0.994240
vt 0.153442 0.807739
vt 0.153442 0.994240
vt 0.153442 0.807739
vt 0.145752 0.994240
vt 0.145752 0.807739
vt 0.303955 0.777832
vt 0.349365 0.634766
vt 0.349365 0.777954
vt 0.349365 0.634766
vt 0.303955 0.777832
vt 0.303955 0.634033
vt 0.349121 0.634033
vt 0.303711 0.824341
vt 0.303711 0.634033
vt 0.303711 0.824341
vt 0.349121 0.634033
vt 0.349121 0.824341
vt 0.349365 0.777832
vt 0.303955 0.634766
vt 0.349365 0.634033
vt 0.303955 0.634766
vt 0.349365 0.777832
vt 0.303955 0.777954
vt 0.145752 0.994240
vt 0.004822 0.994240
vt 0.145752 0.807739
vt 0.145752 0.807739
vt 0.004822 0.994240
vt 0.004822 0.807739
vt 0.153442 0.807739
vt 0.293701 0.994240
vt 0.153442 0.994240
vt 0.293701 0.994240
vt 0.153442 0.807739
vt 0.293701 0.807739
vt 0.145752 0.994240
vt 0.153442 0.807739
vt 0.153442 0.994240
vt 0.153442 0.807739
vt 0.145752 0.994240
vt 0.145752 0.807739
vt 0.303955 0.777832
vt 0.349365 0.634766
vt 0.349365 0.777954
vt 0.349365 0.634766
vt 0.303955 0.777832
vt 0.303955 0.634033
vt 0.349121 0.634033
vt 0.303711 0.824341
vt 0.303711 0.634033
vt 0.303711 0.824341
vt 0.349121 0.634033
vt 0.349121 0.824341
vt 0.349365 0.777832
vt 0.303955 0.634766
vt 0.349365 0.634033
vt 0.303955 0.634766
vt 0.349365 0.777832
vt 0.303955 0.777954
vt 0.303467 0.749023
vt 0.350342 0.632568
vt 0.350586 0.748047
vt 0.350342 0.632568
vt 0.303467 0.749023
vt 0.302979 0.631592
vt 0.350586 0.705566
vt 0.350098 0.821411
vt 0.302734 0.823120
vt 0.302734 0.823120
vt 0.303223 0.706543
vt 0.350586 0.705566
vt 0.349854 0.631592
vt 0.302490 0.826538
vt 0.302490 0.631592
vt 0.302490 0.826538
vt 0.349854 0.631592
vt 0.349854 0.826538
vt 0.869629 0.829590
vt 0.995117 0.995705
vt 0.870605 0.995926
vt 0.995117 0.995705
vt 0.869629 0.829590
vt 0.995117 0.829956
vt 0.349854 0.640869
vt 0.302979 0.823120
vt 0.302979 0.640869
vt 0.302979 0.823120
vt 0.349854 0.640869
vt 0.349854 0.823120
vt 0.349854 0.640869
vt 0.302979 0.777588
vt 0.302979 0.642334
vt 0.302979 0.777588
vt 0.349854 0.640869
vt 0.349609 0.778687
vt 0.659180 0.995777
vt 0.536133 0.829956
vt 0.659180 0.829834
vt 0.536133 0.829956
vt 0.659180 0.995777
vt 0.536133 0.995705
vt 0.303223 0.776489
vt 0.302979 0.639404
vt 0.349854 0.776123
vt 0.302979 0.639404
vt 0.349854 0.640869
vt 0.349854 0.776123
vt 0.349854 0.827271
vt 0.302979 0.633057
vt 0.349854 0.633057
vt 0.302979 0.633057
vt 0.349854 0.827271
vt 0.302979 0.827271
vt 0.303467 0.635498
vt 0.350098 0.820801
vt 0.303467 0.820801
vt 0.350098 0.820801
vt 0.303467 0.635498
vt 0.350098 0.635498
vt 0.869629 0.829590
vt 0.995117 0.995705
vt 0.870605 0.995922
vt 0.995117 0.995705
vt 0.869629 0.829590
vt 0.995117 0.829956
vt 0.349854 0.640869
vt 0.302979 0.823120
vt 0.302979 0.640869
vt 0.302979 0.823120
vt 0.349854 0.640869
vt 0.349854 0.823120
vt 0.349854 0.640869
vt 0.302979 0.777588
vt 0.302979 0.642334
vt 0.302979 0.777588
vt 0.349854 0.640869
vt 0.349609 0.778687
vt 0.659180 0.995777
vt 0.536133 0.829956
vt 0.659180 0.829834
vt 0.536133 0.829956
vt 0.659180 0.995777
vt 0.536133 0.995705
vt 0.303223 0.776489
vt 0.302979 0.639404
vt 0.349854 0.776123
vt 0.302979 0.639404
vt 0.349854 0.640869
vt 0.349854 0.776123
vt 0.350098 0.632080
vt 0.302490 0.825806
vt 0.302490 0.632080
vt 0.302490 0.825806
vt 0.350098 0.632080
vt 0.350098 0.825806
vt 0.302490 0.826904
vt 0.302246 0.634521
vt 0.326416 0.634521
vt 0.326416 0.634521
vt 0.349365 0.826538
vt 0.302490 0.826904
vt 0.350586 0.634521
vt 0.349365 0.826538
vt 0.326416 0.634521
vt 0.349609 0.632568
vt 0.349609 0.802246
vt 0.335449 0.809204
vt 0.301758 0.632812
vt 0.349609 0.632568
vt 0.335449 0.809204
vt 0.301758 0.802246
vt 0.301758 0.632812
vt 0.335449 0.809204
vt 0.349609 0.632568
vt 0.349609 0.802002
vt 0.338135 0.808838
vt 0.349609 0.632568
vt 0.338135 0.808838
vt 0.301758 0.632568
vt 0.301758 0.802002
vt 0.301758 0.632568
vt 0.338135 0.808838
vt 0.350098 0.778687
vt 0.326172 0.787842
vt 0.350098 0.632080
vt 0.350098 0.632080
vt 0.326172 0.787842
vt 0.302490 0.778687
vt 0.302490 0.778687
vt 0.302490 0.632568
vt 0.350098 0.632080
vt 0.349854 0.633057
vt 0.349854 0.753174
vt 0.337158 0.758911
vt 0.337158 0.758911
vt 0.302979 0.632324
vt 0.349854 0.633057
vt 0.302979 0.753174
vt 0.302979 0.632324
vt 0.337158 0.758911
vt 0.349854 0.633057
vt 0.349854 0.753906
vt 0.337402 0.759644
vt 0.302979 0.633789
vt 0.349854 0.633057
vt 0.337402 0.759644
vt 0.302979 0.754028
vt 0.302979 0.633789
vt 0.337402 0.759644
vt 0.785645 0.996138
vt 0.786133 0.829834
vt 0.800781 0.829956
vt 0.800781 0.829956
vt 0.814941 0.995701
vt 0.785645 0.996138
vt 0.814941 0.995701
vt 0.800781 0.829956
vt 0.828613 0.829956
vt 0.814941 0.995701
vt 0.828613 0.829956
vt 0.828613 0.995892
vt 0.350098 0.635498
vt 0.350098 0.755859
vt 0.327148 0.761963
vt 0.303467 0.637451
vt 0.350098 0.635498
vt 0.327148 0.761963
vt 0.303467 0.755859
vt 0.303467 0.637451
vt 0.327148 0.761963
vt 0.350098 0.635498
vt 0.350098 0.753906
vt 0.326416 0.760010
vt 0.350098 0.635498
vt 0.326416 0.760010
vt 0.303467 0.633545
vt 0.303467 0.753906
vt 0.303467 0.633545
vt 0.326416 0.760010
vt 0.350098 0.778687
vt 0.326172 0.787842
vt 0.350098 0.632080
vt 0.350098 0.632080
vt 0.326172 0.787842
vt 0.302490 0.778687
vt 0.302490 0.778687
vt 0.302490 0.632568
vt 0.350098 0.632080
vt 0.349609 0.632568
vt 0.349609 0.802246
vt 0.314209 0.809082
vt 0.301758 0.632812
vt 0.349609 0.632568
vt 0.314209 0.809082
vt 0.301758 0.802246
vt 0.301758 0.632812
vt 0.314209 0.809082
vt 0.349609 0.632568
vt 0.349609 0.802002
vt 0.315674 0.808960
vt 0.349609 0.632568
vt 0.315674 0.808960
vt 0.301758 0.632568
vt 0.301758 0.802002
vt 0.301758 0.632568
vt 0.315674 0.808960
vt 0.427002 0.839478
vt 0.415283 0.840820
vt 0.426758 0.837646
vt 0.415283 0.840820
vt 0.403809 0.839478
vt 0.426758 0.837646
vt 0.403564 0.837402
vt 0.426758 0.837646
vt 0.403809 0.839478
vt 0.302002 0.752075
vt 0.302002 0.633301
vt 0.349609 0.634277
vt 0.349609 0.634277
vt 0.306885 0.756714
vt 0.302002 0.752075
vt 0.306885 0.756714
vt 0.349609 0.634277
vt 0.350098 0.752197
vt 0.350586 0.634521
vt 0.350586 0.826904
vt 0.325684 0.826904
vt 0.325684 0.826904
vt 0.303223 0.634521
vt 0.350586 0.634521
vt 0.303223 0.634521
vt 0.325684 0.826904
vt 0.302246 0.826904
vt 0.427246 0.993626
vt 0.427246 0.836304
vt 0.430664 0.836304
vt 0.427246 0.993626
vt 0.430664 0.836304
vt 0.429932 0.993671
vt 0.429932 0.993671
vt 0.430664 0.836304
vt 0.523926 0.836304
vt 0.429932 0.993671
vt 0.523926 0.836304
vt 0.523926 0.993626
vt 0.415039 0.841187
vt 0.403809 0.839966
vt 0.404053 0.838257
vt 0.426758 0.839966
vt 0.415039 0.841187
vt 0.404053 0.838257
vt 0.426758 0.839966
vt 0.404053 0.838257
vt 0.427002 0.837891
vt 0.415283 0.840820
vt 0.403809 0.839478
vt 0.403564 0.838013
vt 0.427002 0.839478
vt 0.415283 0.840820
vt 0.403564 0.838013
vt 0.427002 0.839478
vt 0.403564 0.838013
vt 0.426758 0.837158
vt 0.349854 0.633057
vt 0.349854 0.753174
vt 0.316162 0.759888
vt 0.316162 0.759888
vt 0.302979 0.632324
vt 0.349854 0.633057
vt 0.302979 0.753174
vt 0.302979 0.632324
vt 0.316162 0.759888
vt 0.349854 0.633057
vt 0.349854 0.753906
vt 0.340820 0.759033
vt 0.302979 0.633789
vt 0.349854 0.633057
vt 0.340820 0.759033
vt 0.302979 0.754028
vt 0.302979 0.633789
vt 0.340820 0.759033
vt 0.350098 0.635498
vt 0.350098 0.755859
vt 0.326416 0.761963
vt 0.303467 0.637451
vt 0.350098 0.635498
vt 0.326416 0.761963
vt 0.303467 0.755859
vt 0.303467 0.637451
vt 0.326416 0.761963
vt 0.350098 0.635498
vt 0.350098 0.753906
vt 0.326416 0.760010
vt 0.350098 0.635498
vt 0.326416 0.760010
vt 0.303467 0.633545
vt 0.303467 0.753906
vt 0.303467 0.633545
vt 0.326416 0.760010
vt 0.130127 0.614502
vt 0.130127 0.803101
vt 0.125122 0.803101
vt 0.130127 0.614502
vt 0.125122 0.803101
vt 0.125122 0.614502
vt 0.125122 0.803101
vt 0.004589 0.803101
vt 0.125122 0.614502
vt 0.125122 0.614502
vt 0.004589 0.803101
vt 0.004589 0.614502
vt 0.350098 0.778687
vt 0.329102 0.787231
vt 0.350098 0.632080
vt 0.350098 0.632080
vt 0.329102 0.787231
vt 0.302490 0.778687
vt 0.302490 0.778687
vt 0.302490 0.632568
vt 0.350098 0.632080
vt 0.340332 0.742920
vt 0.349609 0.633301
vt 0.350586 0.736816
vt 0.340332 0.742920
vt 0.302490 0.634766
vt 0.349609 0.633301
vt 0.302490 0.634766
vt 0.340332 0.742920
vt 0.302246 0.736816
vt 0.723145 0.821167
vt 0.882812 0.637695
vt 0.882812 0.821167
vt 0.723145 0.637695
vt 0.882812 0.637695
vt 0.723145 0.821167
vt 0.719238 0.821167
vt 0.723145 0.637695
vt 0.723145 0.821167
vt 0.719238 0.821167
vt 0.719238 0.637695
vt 0.723145 0.637695
vt 0.719238 0.821167
vt 0.709473 0.635986
vt 0.719238 0.637695
vt 0.709473 0.635986
vt 0.719238 0.821167
vt 0.708984 0.821167
vt 0.709473 0.635986
vt 0.708984 0.821167
vt 0.690918 0.822876
vt 0.690918 0.822876
vt 0.688965 0.637695
vt 0.709473 0.635986
vt 0.688965 0.637695
vt 0.690918 0.822876
vt 0.679199 0.821167
vt 0.679199 0.821167
vt 0.679199 0.637695
vt 0.688965 0.637695
vt 0.679199 0.637695
vt 0.679199 0.821167
vt 0.675293 0.821167
vt 0.679199 0.637695
vt 0.675293 0.821167
vt 0.675293 0.637695
vt 0.675293 0.821167
vt 0.515137 0.637695
vt 0.675293 0.637695
vt 0.515137 0.637695
vt 0.675293 0.821167
vt 0.515137 0.821167
vt 0.859863 0.630127
vt 0.992676 0.453613
vt 0.992676 0.630127
vt 0.992676 0.453613
vt 0.859863 0.630127
vt 0.859863 0.453613
vt 0.854980 0.630127
vt 0.859863 0.453613
vt 0.859863 0.630127
vt 0.854980 0.630127
vt 0.854980 0.453613
vt 0.859863 0.453613
vt 0.854980 0.453613
vt 0.854980 0.630127
vt 0.841309 0.633301
vt 0.841309 0.633301
vt 0.841309 0.450684
vt 0.854980 0.453613
vt 0.841309 0.633301
vt 0.827637 0.453613
vt 0.841309 0.450684
vt 0.827637 0.453613
vt 0.841309 0.633301
vt 0.827637 0.630127
vt 0.350098 0.778442
vt 0.302490 0.631836
vt 0.350098 0.632080
vt 0.326172 0.785889
vt 0.302490 0.631836
vt 0.350098 0.778442
vt 0.302490 0.778320
vt 0.302490 0.631836
vt 0.326172 0.785889
vt 0.654785 0.015625
vt 0.530762 0.189941
vt 0.530762 0.015625
vt 0.653809 0.189941
vt 0.530762 0.189941
vt 0.654785 0.015625
vt 0.654785 0.015625
vt 0.656250 0.189941
vt 0.653809 0.189941
vt 0.671875 0.014160
vt 0.656250 0.189941
vt 0.656250 0.015625
vt 0.656250 0.189941
vt 0.671875 0.014160
vt 0.671875 0.189941
vt 0.671875 0.189941
vt 0.672852 0.014160
vt 0.674316 0.189941
vt 0.674316 0.189941
vt 0.672852 0.014160
vt 0.802246 0.015625
vt 0.674316 0.189941
vt 0.802246 0.015625
vt 0.802246 0.189941
vt 0.120911 0.421875
vt 0.004036 0.609619
vt 0.004036 0.421875
vt 0.004036 0.609619
vt 0.120911 0.421875
vt 0.120911 0.609619
vt 0.128662 0.421875
vt 0.120911 0.609619
vt 0.120911 0.421875
vt 0.120911 0.609619
vt 0.128662 0.421875
vt 0.132446 0.611084
vt 0.148193 0.420410
vt 0.132446 0.611084
vt 0.128662 0.421875
vt 0.148193 0.420410
vt 0.152222 0.609619
vt 0.132446 0.611084
vt 0.152222 0.609619
vt 0.148193 0.420410
vt 0.160034 0.421875
vt 0.152222 0.609619
vt 0.160034 0.421875
vt 0.160034 0.609619
vt 0.160034 0.609619
vt 0.160034 0.421875
vt 0.276123 0.421875
vt 0.160034 0.609619
vt 0.276123 0.421875
vt 0.276123 0.609619
vt 0.125122 0.614502
vt 0.004589 0.803101
vt 0.004589 0.614502
vt 0.125122 0.803101
vt 0.004589 0.803101
vt 0.125122 0.614502
vt 0.130127 0.614502
vt 0.125122 0.803101
vt 0.125122 0.614502
vt 0.130127 0.614502
vt 0.130127 0.803101
vt 0.125122 0.803101
vt 0.130127 0.803101
vt 0.130127 0.614502
vt 0.140137 0.614502
vt 0.140137 0.614502
vt 0.140991 0.803101
vt 0.130127 0.803101
vt 0.140991 0.803101
vt 0.140137 0.614502
vt 0.155518 0.614502
vt 0.155518 0.614502
vt 0.156128 0.803101
vt 0.140991 0.803101
vt 0.166138 0.614502
vt 0.156128 0.803101
vt 0.155518 0.614502
vt 0.156128 0.803101
vt 0.166138 0.614502
vt 0.166138 0.803101
vt 0.166138 0.614502
vt 0.171265 0.803101
vt 0.166138 0.803101
vt 0.171265 0.803101
vt 0.166138 0.614502
vt 0.171265 0.614502
vt 0.171265 0.803101
vt 0.171265 0.614502
vt 0.293701 0.614502
vt 0.171265 0.803101
vt 0.293701 0.614502
vt 0.293701 0.803101
vt 0.859863 0.630127
vt 0.992676 0.453613
vt 0.992676 0.630127
vt 0.992676 0.453613
vt 0.859863 0.630127
vt 0.859863 0.453613
vt 0.854980 0.630127
vt 0.859863 0.453613
vt 0.859863 0.630127
vt 0.859863 0.453613
vt 0.854980 0.630127
vt 0.854980 0.453613
vt 0.854980 0.453613
vt 0.854980 0.630127
vt 0.841309 0.633301
vt 0.841309 0.633301
vt 0.841309 0.450684
vt 0.854980 0.453613
vt 0.841309 0.633301
vt 0.827637 0.453613
vt 0.841309 0.450684
vt 0.827637 0.453613
vt 0.841309 0.633301
vt 0.827637 0.630127
vt 0.827637 0.453613
vt 0.827637 0.630127
vt 0.822754 0.630127
vt 0.827637 0.453613
vt 0.822754 0.630127
vt 0.822754 0.453613
vt 0.822754 0.630127
vt 0.689453 0.453613
vt 0.822754 0.453613
vt 0.689453 0.453613
vt 0.822754 0.630127
vt 0.689453 0.630127
vt 0.350098 0.778442
vt 0.302490 0.631836
vt 0.350098 0.632080
vt 0.326172 0.785889
vt 0.302490 0.631836
vt 0.350098 0.778442
vt 0.302490 0.778320
vt 0.302490 0.631836
vt 0.326172 0.785889
vt 0.723145 0.821167
vt 0.882812 0.637695
vt 0.882812 0.821167
vt 0.723145 0.637695
vt 0.882812 0.637695
vt 0.723145 0.821167
vt 0.719238 0.821167
vt 0.723145 0.637695
vt 0.723145 0.821167
vt 0.719238 0.821167
vt 0.719238 0.637695
vt 0.723145 0.637695
vt 0.708984 0.822998
vt 0.719238 0.637695
vt 0.719238 0.821167
vt 0.719238 0.637695
vt 0.708984 0.822998
vt 0.708984 0.637695
vt 0.708984 0.822998
vt 0.690918 0.636230
vt 0.708984 0.637695
vt 0.690918 0.636230
vt 0.708984 0.822998
vt 0.686035 0.821289
vt 0.686035 0.821289
vt 0.679199 0.637695
vt 0.690918 0.636230
vt 0.679199 0.637695
vt 0.686035 0.821289
vt 0.675293 0.821167
vt 0.679199 0.637695
vt 0.675293 0.821167
vt 0.675293 0.637695
vt 0.675293 0.821167
vt 0.515137 0.637695
vt 0.675293 0.637695
vt 0.515137 0.637695
vt 0.675293 0.821167
vt 0.515137 0.821167
vt 0.327148 0.752197
vt 0.350342 0.632568
vt 0.350586 0.748047
vt 0.350342 0.632568
vt 0.327148 0.752197
vt 0.302979 0.631592
vt 0.327148 0.752197
vt 0.303223 0.747559
vt 0.302979 0.631592
vt 0.096191 0.081055
vt 0.009430 0.219238
vt 0.009201 0.081055
vt 0.009430 0.219238
vt 0.096191 0.081055
vt 0.096191 0.219238
vt 0.102112 0.079590
vt 0.096191 0.219238
vt 0.096191 0.081055
vt 0.102112 0.079590
vt 0.105469 0.219238
vt 0.096191 0.219238
vt 0.105469 0.219238
vt 0.102112 0.079590
vt 0.123352 0.081055
vt 0.123352 0.081055
vt 0.126953 0.219727
vt 0.105469 0.219238
vt 0.126953 0.219727
vt 0.123352 0.081055
vt 0.132568 0.081055
vt 0.126953 0.219727
vt 0.132568 0.081055
vt 0.132568 0.219238
vt 0.132568 0.219238
vt 0.132568 0.081055
vt 0.217896 0.081055
vt 0.132568 0.219238
vt 0.217896 0.081055
vt 0.218140 0.219238
vt 0.306885 0.758057
vt 0.349854 0.634277
vt 0.350098 0.754028
vt 0.349854 0.634277
vt 0.306885 0.758057
vt 0.302002 0.636475
vt 0.302002 0.636475
vt 0.306885 0.758057
vt 0.302002 0.754028
vt 0.140991 0.419922
vt 0.148926 0.223633
vt 0.148926 0.418457
vt 0.148926 0.223633
vt 0.140991 0.419922
vt 0.138672 0.223633
vt 0.138672 0.223633
vt 0.140991 0.419922
vt 0.120728 0.418457
vt 0.120728 0.418457
vt 0.120422 0.221680
vt 0.138672 0.223633
vt 0.120728 0.418457
vt 0.110718 0.223633
vt 0.120422 0.221680
vt 0.110718 0.223633
vt 0.120728 0.418457
vt 0.110718 0.418457
vt 0.312744 0.741455
vt 0.350098 0.632568
vt 0.350586 0.735352
vt 0.350098 0.632568
vt 0.312744 0.741455
vt 0.302490 0.631592
vt 0.302490 0.631592
vt 0.312744 0.741455
vt 0.302246 0.735107
vt 0.402100 0.836304
vt 0.414551 0.993626
vt 0.402100 0.993626
vt 0.414551 0.993626
vt 0.402100 0.836304
vt 0.414551 0.836304
vt 0.414551 0.836304
vt 0.427246 0.993626
vt 0.414551 0.993626
vt 0.427246 0.993626
vt 0.414551 0.836304
vt 0.427246 0.836304
vt 0.120911 0.421875
vt 0.004036 0.609619
vt 0.004036 0.421875
vt 0.004036 0.609619
vt 0.120911 0.421875
vt 0.120911 0.609619
vt 0.124512 0.421875
vt 0.120911 0.609619
vt 0.120911 0.421875
vt 0.120911 0.609619
vt 0.124512 0.421875
vt 0.129883 0.610352
vt 0.129883 0.610352
vt 0.124512 0.421875
vt 0.133301 0.419922
vt 0.129883 0.610352
vt 0.133301 0.419922
vt 0.152100 0.609619
vt 0.151123 0.421875
vt 0.152100 0.609619
vt 0.133301 0.419922
vt 0.152100 0.609619
vt 0.151123 0.421875
vt 0.160034 0.421875
vt 0.152100 0.609619
vt 0.160034 0.421875
vt 0.160034 0.609619
vt 0.160034 0.609619
vt 0.160034 0.421875
vt 0.276123 0.421875
vt 0.160034 0.609619
vt 0.276123 0.421875
vt 0.276123 0.609619
vt 0.166138 0.803101
vt 0.156128 0.614502
vt 0.166138 0.614502
vt 0.156128 0.614502
vt 0.166138 0.803101
vt 0.155518 0.803101
vt 0.155518 0.803101
vt 0.140991 0.614502
vt 0.156128 0.614502
vt 0.140137 0.803101
vt 0.140991 0.614502
vt 0.155518 0.803101
vt 0.140137 0.803101
vt 0.130127 0.614502
vt 0.140991 0.614502
vt 0.130127 0.614502
vt 0.140137 0.803101
vt 0.130127 0.803101
vt 0.854980 0.630127
vt 0.843262 0.450684
vt 0.854980 0.453613
vt 0.843262 0.450684
vt 0.854980 0.630127
vt 0.839844 0.633301
vt 0.839844 0.633301
vt 0.827637 0.453613
vt 0.843262 0.450684
vt 0.827637 0.453613
vt 0.839844 0.633301
vt 0.827637 0.630127
vt 0.350098 0.778442
vt 0.302490 0.631836
vt 0.350098 0.632080
vt 0.329346 0.786621
vt 0.302490 0.631836
vt 0.350098 0.778442
vt 0.302490 0.778320
vt 0.302490 0.631836
vt 0.329346 0.786621
vt 0.105896 0.223633
vt 0.004028 0.418457
vt 0.004124 0.223633
vt 0.004028 0.418457
vt 0.105896 0.223633
vt 0.105896 0.418457
vt 0.105896 0.223633
vt 0.110718 0.418457
vt 0.105896 0.418457
vt 0.110718 0.418457
vt 0.105896 0.223633
vt 0.110718 0.223633
vt 0.110718 0.223633
vt 0.120300 0.418457
vt 0.110718 0.418457
vt 0.120300 0.418457
vt 0.110718 0.223633
vt 0.121094 0.223633
vt 0.120300 0.418457
vt 0.121094 0.223633
vt 0.137817 0.421387
vt 0.137817 0.421387
vt 0.121094 0.223633
vt 0.140991 0.222168
vt 0.140991 0.222168
vt 0.148926 0.418457
vt 0.137817 0.421387
vt 0.148926 0.418457
vt 0.140991 0.222168
vt 0.148926 0.223633
vt 0.148926 0.418457
vt 0.148926 0.223633
vt 0.153809 0.223633
vt 0.148926 0.418457
vt 0.153809 0.223633
vt 0.153809 0.418457
vt 0.153809 0.223633
vt 0.257324 0.418457
vt 0.153809 0.418457
vt 0.257324 0.418457
vt 0.153809 0.223633
vt 0.256348 0.224121
vt 0.350586 0.735352
vt 0.326416 0.634277
vt 0.350586 0.634521
vt 0.316406 0.742920
vt 0.326416 0.634277
vt 0.350586 0.735352
vt 0.326416 0.634277
vt 0.316406 0.742920
vt 0.302246 0.735107
vt 0.302246 0.735107
vt 0.302246 0.633057
vt 0.326416 0.634277
vt 0.659668 0.829834
vt 0.679199 0.995682
vt 0.659668 0.995777
vt 0.679199 0.995682
vt 0.659668 0.829834
vt 0.674316 0.829956
vt 0.679199 0.995682
vt 0.674316 0.829956
vt 0.702148 0.829590
vt 0.702148 0.829590
vt 0.702148 0.995922
vt 0.679199 0.995682
vt 0.827637 0.453613
vt 0.827637 0.630127
vt 0.822754 0.630127
vt 0.827637 0.453613
vt 0.822754 0.630127
vt 0.822754 0.453613
vt 0.822754 0.630127
vt 0.689453 0.453613
vt 0.822754 0.453613
vt 0.689453 0.453613
vt 0.822754 0.630127
vt 0.689453 0.630127
vt 0.702148 0.829834
vt 0.721680 0.995682
vt 0.701660 0.995777
vt 0.721680 0.995682
vt 0.702148 0.829834
vt 0.716797 0.829956
vt 0.721680 0.995682
vt 0.716797 0.829956
vt 0.744629 0.829590
vt 0.744629 0.829590
vt 0.744141 0.995922
vt 0.721680 0.995682
vt 0.304443 0.836304
vt 0.398926 0.993664
vt 0.304443 0.993626
vt 0.398926 0.993664
vt 0.304443 0.836304
vt 0.398193 0.836304
vt 0.402100 0.836304
vt 0.398926 0.993664
vt 0.398193 0.836304
vt 0.402100 0.836304
vt 0.402100 0.993626
vt 0.398926 0.993664
vt 0.402100 0.836304
vt 0.414551 0.993626
vt 0.402100 0.993626
vt 0.414551 0.993626
vt 0.402100 0.836304
vt 0.414795 0.834473
vt 0.427246 0.836304
vt 0.414551 0.993626
vt 0.414795 0.834473
vt 0.414551 0.993626
vt 0.427246 0.836304
vt 0.427246 0.993626
vt 0.427246 0.836304
vt 0.430664 0.993626
vt 0.427246 0.993626
vt 0.430664 0.993626
vt 0.427246 0.836304
vt 0.430664 0.836304
vt 0.430664 0.993626
vt 0.430664 0.836304
vt 0.523926 0.836304
vt 0.430664 0.993626
vt 0.523926 0.836304
vt 0.523926 0.993626
vt 0.827637 0.829834
vt 0.847656 0.995682
vt 0.827637 0.995777
vt 0.847656 0.995682
vt 0.827637 0.829834
vt 0.842285 0.829956
vt 0.847656 0.995682
vt 0.842285 0.829956
vt 0.870605 0.829590
vt 0.870605 0.829590
vt 0.870117 0.995922
vt 0.847656 0.995682
vt 0.105896 0.223633
vt 0.004456 0.418457
vt 0.004028 0.223633
vt 0.004456 0.418457
vt 0.105896 0.223633
vt 0.105896 0.418457
vt 0.105896 0.223633
vt 0.110718 0.418457
vt 0.105896 0.418457
vt 0.110718 0.418457
vt 0.105896 0.223633
vt 0.110718 0.223633
vt 0.148926 0.418457
vt 0.148926 0.223633
vt 0.153809 0.223633
vt 0.148926 0.418457
vt 0.153809 0.223633
vt 0.153809 0.418457
vt 0.153809 0.223633
vt 0.257080 0.418457
vt 0.153809 0.418457
vt 0.257080 0.418457
vt 0.153809 0.223633
vt 0.257324 0.223633
vt 0.350586 0.736816
vt 0.325684 0.635742
vt 0.350586 0.634521
vt 0.314941 0.743408
vt 0.325684 0.635742
vt 0.350586 0.736816
vt 0.325684 0.635742
vt 0.314941 0.743408
vt 0.302246 0.736816
vt 0.302246 0.736816
vt 0.302246 0.636230
vt 0.325684 0.635742
vt 0.304443 0.836304
vt 0.398193 0.993626
vt 0.304443 0.993626
vt 0.398193 0.993626
vt 0.304443 0.836304
vt 0.399170 0.836182
vt 0.402100 0.836304
vt 0.398193 0.993626
vt 0.399170 0.836182
vt 0.402100 0.836304
vt 0.402100 0.993626
vt 0.398193 0.993626
vt 0.659668 0.829834
vt 0.679199 0.995682
vt 0.659668 0.995777
vt 0.679199 0.995682
vt 0.659668 0.829834
vt 0.674316 0.829956
vt 0.679199 0.995682
vt 0.674316 0.829956
vt 0.702148 0.829590
vt 0.702148 0.829590
vt 0.702148 0.995922
vt 0.679199 0.995682
vt 0.166138 0.614502
vt 0.171265 0.803101
vt 0.166138 0.803101
vt 0.171265 0.803101
vt 0.166138 0.614502
vt 0.171265 0.614502
vt 0.171265 0.803101
vt 0.171265 0.614502
vt 0.293701 0.614502
vt 0.171265 0.803101
vt 0.293701 0.614502
vt 0.293701 0.803101
vt 0.743164 0.829834
vt 0.762695 0.995682
vt 0.742676 0.995777
vt 0.762695 0.995682
vt 0.743164 0.829834
vt 0.757812 0.829956
vt 0.762695 0.995682
vt 0.757812 0.829956
vt 0.785645 0.829590
vt 0.785645 0.829590
vt 0.785156 0.995922
vt 0.762695 0.995682
vt 0.992676 0.630127
vt 0.859863 0.453613
vt 0.992676 0.453613
vt 0.859863 0.453613
vt 0.992676 0.630127
vt 0.859863 0.630127
vt 0.854980 0.630127
vt 0.859863 0.453613
vt 0.859863 0.630127
vt 0.854980 0.630127
vt 0.854980 0.453613
vt 0.859863 0.453613
vt 0.827637 0.453613
vt 0.827637 0.630127
vt 0.822754 0.630127
vt 0.827637 0.453613
vt 0.822754 0.630127
vt 0.822754 0.453613
vt 0.822754 0.630127
vt 0.689453 0.453613
vt 0.822754 0.453613
vt 0.689453 0.453613
vt 0.822754 0.630127
vt 0.689453 0.630127
vt 0.130859 0.617188
vt 0.148438 0.623047
vt 0.130859 0.622070
vt 0.139526 0.626465
vt 0.130859 0.622070
vt 0.148438 0.623047
vt 0.156128 0.626709
vt 0.139526 0.626465
vt 0.148438 0.623047
vt 0.165405 0.622070
vt 0.156128 0.626709
vt 0.148438 0.623047
vt 0.165405 0.617188
vt 0.165405 0.622070
vt 0.148438 0.623047
vt 0.130859 0.615234
vt 0.147827 0.621094
vt 0.130859 0.620117
vt 0.139526 0.624512
vt 0.130859 0.620117
vt 0.147827 0.621094
vt 0.156006 0.625000
vt 0.139526 0.624512
vt 0.147827 0.621094
vt 0.165405 0.620117
vt 0.156006 0.625000
vt 0.147827 0.621094
vt 0.165405 0.615234
vt 0.165405 0.620117
vt 0.147827 0.621094
vt 0.130859 0.617188
vt 0.147827 0.623047
vt 0.130859 0.622070
vt 0.140259 0.626953
vt 0.130859 0.622070
vt 0.147827 0.623047
vt 0.156738 0.626465
vt 0.140259 0.626953
vt 0.147827 0.623047
vt 0.165405 0.622070
vt 0.156738 0.626465
vt 0.147827 0.623047
vt 0.165405 0.617188
vt 0.165405 0.622070
vt 0.147827 0.623047
vt 0.130859 0.615234
vt 0.147827 0.621094
vt 0.130859 0.620117
vt 0.140137 0.625000
vt 0.130859 0.620117
vt 0.147827 0.621094
vt 0.156738 0.624512
vt 0.140137 0.625000
vt 0.147827 0.621094
vt 0.165405 0.620117
vt 0.156738 0.624512
vt 0.147827 0.621094
vt 0.165405 0.615234
vt 0.165405 0.620117
vt 0.147827 0.621094

g UnrealEdObject

s 0
f 1/1 2/2 3/3
f 4/4 5/5 6/6
f 7/7 8/8 9/9
f 10/10 11/11 12/12
f 13/13 14/14 15/15
f 16/16 17/17 18/18
f 19/19 20/20 21/21
f 22/22 23/23 24/24
f 25/25 26/26 27/27
f 28/28 29/29 30/30
f 31/31 32/32 33/33
f 34/34 35/35 36/36
f 37/37 38/38 39/39
f 40/40 41/41 42/42
f 43/43 44/44 45/45
f 46/46 47/47 48/48
f 49/49 50/50 51/51
f 52/52 53/53 54/54
f 55/55 56/56 57/57
f 58/58 59/59 60/60
f 61/61 62/62 63/63
f 64/64 65/65 66/66
f 67/67 68/68 69/69
f 70/70 71/71 72/72
f 73/73 74/74 75/75
f 76/76 77/77 78/78
f 79/79 80/80 81/81
f 82/82 83/83 84/84
f 85/85 86/86 87/87
f 88/88 89/89 90/90
f 91/91 92/92 93/93
f 94/94 95/95 96/96
f 97/97 98/98 99/99
f 100/100 101/101 102/102
f 103/103 104/104 105/105
f 106/106 107/107 108/108
f 109/109 110/110 111/111
f 112/112 113/113 114/114
f 115/115 116/116 117/117
f 118/118 119/119 120/120
f 121/121 122/122 123/123
f 124/124 125/125 126/126
f 127/127 128/128 129/129
f 130/130 131/131 132/132
f 133/133 134/134 135/135
f 136/136 137/137 138/138
f 139/139 140/140 141/141
f 142/142 143/143 144/144
f 145/145 146/146 147/147
f 148/148 149/149 150/150
f 151/151 152/152 153/153
f 154/154 155/155 156/156
f 157/157 158/158 159/159
f 160/160 161/161 162/162
f 163/163 164/164 165/165
f 166/166 167/167 168/168
f 169/169 170/170 171/171
f 172/172 173/173 174/174
f 175/175 176/176 177/177
f 178/178 179/179 180/180
f 181/181 182/182 183/183
f 184/184 185/185 186/186
f 187/187 188/188 189/189
f 190/190 191/191 192/192
f 193/193 194/194 195/195
f 196/196 197/197 198/198
f 199/199 200/200 201/201
f 202/202 203/203 204/204
f 205/205 206/206 207/207
f 208/208 209/209 210/210
f 211/211 212/212 213/213
f 214/214 215/215 216/216
f 217/217 218/218 219/219
f 220/220 221/221 222/222
f 223/223 224/224 225/225
f 226/226 227/227 228/228
f 229/229 230/230 231/231
f 232/232 233/233 234/234
f 235/235 236/236 237/237
f 238/238 239/239 240/240
f 241/241 242/242 243/243
f 244/244 245/245 246/246
f 247/247 248/248 249/249
f 250/250 251/251 252/252
f 253/253 254/254 255/255
f 256/256 257/257 258/258
f 259/259 260/260 261/261
f 262/262 263/263 264/264
f 265/265 266/266 267/267
f 268/268 269/269 270/270
f 271/271 272/272 273/273
f 274/274 275/275 276/276
f 277/277 278/278 279/279
f 280/280 281/281 282/282
f 283/283 284/284 285/285
f 286/286 287/287 288/288
f 289/289 290/290 291/291
f 292/292 293/293 294/294
f 295/295 296/296 297/297
f 298/298 299/299 300/300
f 301/301 302/302 303/303
f 304/304 305/305 306/306
f 307/307 308/308 309/309
f 310/310 311/311 312/312
f 313/313 314/314 315/315
f 316/316 317/317 318/318
f 319/319 320/320 321/321
f 322/322 323/323 324/324
f 325/325 326/326 327/327
f 328/328 329/329 330/330
f 331/331 332/332 333/333
f 334/334 335/335 336/336
f 337/337 338/338 339/339
f 340/340 341/341 342/342
f 343/343 344/344 345/345
f 346/346 347/347 348/348
f 349/349 350/350 351/351
f 352/352 353/353 354/354
f 355/355 356/356 357/357
f 358/358 359/359 360/360
f 361/361 362/362 363/363
f 364/364 365/365 366/366
f 367/367 368/368 369/369
f 370/370 371/371 372/372
f 373/373 374/374 375/375
f 376/376 377/377 378/378
f 379/379 380/380 381/381
f 382/382 383/383 384/384
f 385/385 386/386 387/387
f 388/388 389/389 390/390
f 391/391 392/392 393/393
f 394/394 395/395 396/396
f 397/397 398/398 399/399
f 400/400 401/401 402/402
f 403/403 404/404 405/405
f 406/406 407/407 408/408
f 409/409 410/410 411/411
f 412/412 413/413 414/414
f 415/415 416/416 417/417
f 418/418 419/419 420/420
f 421/421 422/422 423/423
f 424/424 425/425 426/426
f 427/427 428/428 429/429
f 430/430 431/431 432/432
f 433/433 434/434 435/435
f 436/436 437/437 438/438
f 439/439 440/440 441/441
f 442/442 443/443 444/444
f 445/445 446/446 447/447
f 448/448 449/449 450/450
f 451/451 452/452 453/453
f 454/454 455/455 456/456
f 457/457 458/458 459/459
f 460/460 461/461 462/462
f 463/463 464/464 465/465
f 466/466 467/467 468/468
f 469/469 470/470 471/471
f 472/472 473/473 474/474
f 475/475 476/476 477/477
f 478/478 479/479 480/480
f 481/481 482/482 483/483
f 484/484 485/485 486/486
f 487/487 488/488 489/489
f 490/490 491/491 492/492
f 493/493 494/494 495/495
f 496/496 497/497 498/498
f 499/499 500/500 501/501
f 502/502 503/503 504/504
f 505/505 506/506 507/507
f 508/508 509/509 510/510
f 511/511 512/512 513/513
f 514/514 515/515 516/516
f 517/517 518/518 519/519
f 520/520 521/521 522/522
f 523/523 524/524 525/525
f 526/526 527/527 528/528
f 529/529 530/530 531/531
f 532/532 533/533 534/534
f 535/535 536/536 537/537
f 538/538 539/539 540/540
f 541/541 542/542 543/543
f 544/544 545/545 546/546
f 547/547 548/548 549/549
f 550/550 551/551 552/552
f 553/553 554/554 555/555
f 556/556 557/557 558/558
f 559/559 560/560 561/561
f 562/562 563/563 564/564
f 565/565 566/566 567/567
f 568/568 569/569 570/570
f 571/571 572/572 573/573
f 574/574 575/575 576/576
f 577/577 578/578 579/579
f 580/580 581/581 582/582
f 583/583 584/584 585/585
f 586/586 587/587 588/588
f 589/589 590/590 591/591
f 592/592 593/593 594/594
f 595/595 596/596 597/597
f 598/598 599/599 600/600
f 601/601 602/602 603/603
f 604/604 605/605 606/606
f 607/607 608/608 609/609
f 610/610 611/611 612/612
f 613/613 614/614 615/615
f 616/616 617/617 618/618
f 619/619 620/620 621/621
f 622/622 623/623 624/624
f 625/625 626/626 627/627
f 628/628 629/629 630/630
f 631/631 632/632 633/633
f 634/634 635/635 636/636
f 637/637 638/638 639/639
f 640/640 641/641 642/642
f 643/643 644/644 645/645
f 646/646 647/647 648/648
f 649/649 650/650 651/651
f 652/652 653/653 654/654
f 655/655 656/656 657/657
f 658/658 659/659 660/660
f 661/661 662/662 663/663
f 664/664 665/665 666/666
f 667/667 668/668 669/669
f 670/670 671/671 672/672
f 673/673 674/674 675/675
f 676/676 677/677 678/678
f 679/679 680/680 681/681
f 682/682 683/683 684/684
f 685/685 686/686 687/687
f 688/688 689/689 690/690
f 691/691 692/692 693/693
f 694/694 695/695 696/696
f 697/697 698/698 699/699
f 700/700 701/701 702/702
f 703/703 704/704 705/705
f 706/706 707/707 708/708
f 709/709 710/710 711/711
f 712/712 713/713 714/714
f 715/715 716/716 717/717
f 718/718 719/719 720/720
f 721/721 722/722 723/723
f 724/724 725/725 726/726
f 727/727 728/728 729/729
f 730/730 731/731 732/732
f 733/733 734/734 735/735
f 736/736 737/737 738/738
f 739/739 740/740 741/741
f 742/742 743/743 744/744
f 745/745 746/746 747/747
f 748/748 749/749 750/750
f 751/751 752/752 753/753
f 754/754 755/755 756/756
f 757/757 758/758 759/759
f 760/760 761/761 762/762
f 763/763 764/764 765/765
f 766/766 767/767 768/768
f 769/769 770/770 771/771
f 772/772 773/773 774/774
f 775/775 776/776 777/777
f 778/778 779/779 780/780
f 781/781 782/782 783/783
f 784/784 785/785 786/786
f 787/787 788/788 789/789
f 790/790 791/791 792/792
f 793/793 794/794 795/795
f 796/796 797/797 798/798
f 799/799 800/800 801/801
f 802/802 803/803 804/804
f 805/805 806/806 807/807
f 808/808 809/809 810/810
f 811/811 812/812 813/813
f 814/814 815/815 816/816
f 817/817 818/818 819/819
f 820/820 821/821 822/822
f 823/823 824/824 825/825
f 826/826 827/827 828/828
f 829/829 830/830 831/831
f 832/832 833/833 834/834
f 835/835 836/836 837/837
f 838/838 839/839 840/840
f 841/841 842/842 843/843
f 844/844 845/845 846/846
f 847/847 848/848 849/849
f 850/850 851/851 852/852
f 853/853 854/854 855/855
f 856/856 857/857 858/858
f 859/859 860/860 861/861
f 862/862 863/863 864/864
f 865/865 866/866 867/867
f 868/868 869/869 870/870
f 871/871 872/872 873/873
f 874/874 875/875 876/876
f 877/877 878/878 879/879
f 880/880 881/881 882/882
f 883/883 884/884 885/885
f 886/886 887/887 888/888
f 889/889 890/890 891/891
f 892/892 893/893 894/894
f 895/895 896/896 897/897
f 898/898 899/899 900/900
f 901/901 902/902 903/903
f 904/904 905/905 906/906
f 907/907 908/908 909/909
f 910/910 911/911 912/912
f 913/913 914/914 915/915
f 916/916 917/917 918/918
f 919/919 920/920 921/921
f 922/922 923/923 924/924
f 925/925 926/926 927/927
f 928/928 929/929 930/930
f 931/931 932/932 933/933
f 934/934 935/935 936/936
f 937/937 938/938 939/939
f 940/940 941/941 942/942
f 943/943 944/944 945/945
f 946/946 947/947 948/948
f 949/949 950/950 951/951
f 952/952 953/953 954/954
f 955/955 956/956 957/957
f 958/958 959/959 960/960
f 961/961 962/962 963/963
f 964/964 965/965 966/966
f 967/967 968/968 969/969
f 970/970 971/971 972/972
f 973/973 974/974 975/975
f 976/976 977/977 978/978
f 979/979 980/980 981/981
f 982/982 983/983 984/984
f 985/985 986/986 987/987
f 988/988 989/989 990/990
f 991/991 992/992 993/993
f 994/994 995/995 996/996
f 997/997 998/998 999/999
f 1000/1000 1001/1001 1002/1002
f 1003/1003 1004/1004 1005/1005
f 1006/1006 1007/1007 1008/1008
f 1009/1009 1010/1010 1011/1011
f 1012/1012 1013/1013 1014/1014
f 1015/1015 1016/1016 1017/1017
f 1018/1018 1019/1019 1020/1020
f 1021/1021 1022/1022 1023/1023
f 1024/1024 1025/1025 1026/1026
f 1027/1027 1028/1028 1029/1029
f 1030/1030 1031/1031 1032/1032
f 1033/1033 1034/1034 1035/1035
f 1036/1036 1037/1037 1038/1038
f 1039/1039 1040/1040 1041/1041
f 1042/1042 1043/1043 1044/1044
f 1045/1045 1046/1046 1047/1047
f 1048/1048 1049/1049 1050/1050
f 1051/1051 1052/1052 1053/1053
f 1054/1054 1055/1055 1056/1056
f 1057/1057 1058/1058 1059/1059
f 1060/1060 1061/1061 1062/1062
f 1063/1063 1064/1064 1065/1065
f 1066/1066 1067/1067 1068/1068
f 1069/1069 1070/1070 1071/1071
f 1072/1072 1073/1073 1074/1074
f 1075/1075 1076/1076 1077/1077
f 1078/1078 1079/1079 1080/1080
f 1081/1081 1082/1082 1083/1083
f 1084/1084 1085/1085 1086/1086
f 1087/1087 1088/1088 1089/1089
f 1090/1090 1091/1091 1092/1092
f 1093/1093 1094/1094 1095/1095
f 1096/1096 1097/1097 1098/1098
f 1099/1099 1100/1100 1101/1101
f 1102/1102 1103/1103 1104/1104
f 1105/1105 1106/1106 1107/1107
f 1108/1108 1109/1109 1110/1110
f 1111/1111 1112/1112 1113/1113
f 1114/1114 1115/1115 1116/1116
f 1117/1117 1118/1118 1119/1119
f 1120/1120 1121/1121 1122/1122
f 1123/1123 1124/1124 1125/1125
f 1126/1126 1127/1127 1128/1128
f 1129/1129 1130/1130 1131/1131
f 1132/1132 1133/1133 1134/1134
f 1135/1135 1136/1136 1137/1137
f 1138/1138 1139/1139 1140/1140
f 1141/1141 1142/1142 1143/1143
f 1144/1144 1145/1145 1146/1146
f 1147/1147 1148/1148 1149/1149
f 1150/1150 1151/1151 1152/1152
f 1153/1153 1154/1154 1155/1155
f 1156/1156 1157/1157 1158/1158
f 1159/1159 1160/1160 1161/1161
f 1162/1162 1163/1163 1164/1164
f 1165/1165 1166/1166 1167/1167
f 1168/1168 1169/1169 1170/1170
f 1171/1171 1172/1172 1173/1173
f 1174/1174 1175/1175 1176/1176
f 1177/1177 1178/1178 1179/1179
f 1180/1180 1181/1181 1182/1182
f 1183/1183 1184/1184 1185/1185
f 1186/1186 1187/1187 1188/1188
f 1189/1189 1190/1190 1191/1191
f 1192/1192 1193/1193 1194/1194
f 1195/1195 1196/1196 1197/1197
f 1198/1198 1199/1199 1200/1200
f 1201/1201 1202/1202 1203/1203
f 1204/1204 1205/1205 1206/1206
f 1207/1207 1208/1208 1209/1209
f 1210/1210 1211/1211 1212/1212
f 1213/1213 1214/1214 1215/1215
f 1216/1216 1217/1217 1218/1218
f 1219/1219 1220/1220 1221/1221
f 1222/1222 1223/1223 1224/1224
f 1225/1225 1226/1226 1227/1227
f 1228/1228 1229/1229 1230/1230
f 1231/1231 1232/1232 1233/1233
f 1234/1234 1235/1235 1236/1236
f 1237/1237 1238/1238 1239/1239
f 1240/1240 1241/1241 1242/1242
f 1243/1243 1244/1244 1245/1245
f 1246/1246 1247/1247 1248/1248
f 1249/1249 1250/1250 1251/1251
f 1252/1252 1253/1253 1254/1254
f 1255/1255 1256/1256 1257/1257
f 1258/1258 1259/1259 1260/1260
f 1261/1261 1262/1262 1263/1263
f 1264/1264 1265/1265 1266/1266
f 1267/1267 1268/1268 1269/1269
f 1270/1270 1271/1271 1272/1272
f 1273/1273 1274/1274 1275/1275
f 1276/1276 1277/1277 1278/1278
f 1279/1279 1280/1280 1281/1281
f 1282/1282 1283/1283 1284/1284
f 1285/1285 1286/1286 1287/1287
f 1288/1288 1289/1289 1290/1290
f 1291/1291 1292/1292 1293/1293
f 1294/1294 1295/1295 1296/1296
f 1297/1297 1298/1298 1299/1299
f 1300/1300 1301/1301 1302/1302
f 1303/1303 1304/1304 1305/1305
f 1306/1306 1307/1307 1308/1308
f 1309/1309 1310/1310 1311/1311
f 1312/1312 1313/1313 1314/1314
f 1315/1315 1316/1316 1317/1317
f 1318/1318 1319/1319 1320/1320
f 1321/1321 1322/1322 1323/1323
f 1324/1324 1325/1325 1326/1326
f 1327/1327 1328/1328 1329/1329
f 1330/1330 1331/1331 1332/1332
f 1333/1333 1334/1334 1335/1335
f 1336/1336 1337/1337 1338/1338
f 1339/1339 1340/1340 1341/1341
f 1342/1342 1343/1343 1344/1344
f 1345/1345 1346/1346 1347/1347
f 1348/1348 1349/1349 1350/1350
f 1351/1351 1352/1352 1353/1353
f 1354/1354 1355/1355 1356/1356
f 1357/1357 1358/1358 1359/1359
f 1360/1360 1361/1361 1362/1362
f 1363/1363 1364/1364 1365/1365
f 1366/1366 1367/1367 1368/1368
f 1369/1369 1370/1370 1371/1371
f 1372/1372 1373/1373 1374/1374
f 1375/1375 1376/1376 1377/1377
f 1378/1378 1379/1379 1380/1380
f 1381/1381 1382/1382 1383/1383
f 1384/1384 1385/1385 1386/1386
f 1387/1387 1388/1388 1389/1389
f 1390/1390 1391/1391 1392/1392
f 1393/1393 1394/1394 1395/1395
f 1396/1396 1397/1397 1398/1398
f 1399/1399 1400/1400 1401/1401
f 1402/1402 1403/1403 1404/1404
f 1405/1405 1406/1406 1407/1407
f 1408/1408 1409/1409 1410/1410
f 1411/1411 1412/1412 1413/1413
f 1414/1414 1415/1415 1416/1416
f 1417/1417 1418/1418 1419/1419
f 1420/1420 1421/1421 1422/1422
f 1423/1423 1424/1424 1425/1425
f 1426/1426 1427/1427 1428/1428
f 1429/1429 1430/1430 1431/1431
f 1432/1432 1433/1433 1434/1434
f 1435/1435 1436/1436 1437/1437
f 1438/1438 1439/1439 1440/1440
f 1441/1441 1442/1442 1443/1443
f 1444/1444 1445/1445 1446/1446
f 1447/1447 1448/1448 1449/1449
f 1450/1450 1451/1451 1452/1452
f 1453/1453 1454/1454 1455/1455
f 1456/1456 1457/1457 1458/1458
f 1459/1459 1460/1460 1461/1461
f 1462/1462 1463/1463 1464/1464
f 1465/1465 1466/1466 1467/1467
f 1468/1468 1469/1469 1470/1470
f 1471/1471 1472/1472 1473/1473
f 1474/1474 1475/1475 1476/1476
f 1477/1477 1478/1478 1479/1479
f 1480/1480 1481/1481 1482/1482
f 1483/1483 1484/1484 1485/1485
f 1486/1486 1487/1487 1488/1488
f 1489/1489 1490/1490 1491/1491
f 1492/1492 1493/1493 1494/1494
f 1495/1495 1496/1496 1497/1497
f 1498/1498 1499/1499 1500/1500
f 1501/1501 1502/1502 1503/1503
f 1504/1504 1505/1505 1506/1506
f 1507/1507 1508/1508 1509/1509
f 1510/1510 1511/1511 1512/1512
f 1513/1513 1514/1514 1515/1515
f 1516/1516 1517/1517 1518/1518
f 1519/1519 1520/1520 1521/1521
f 1522/1522 1523/1523 1524/1524

g
